{
  "source": "C:\\Users\\Peter\\Desktop\\stuff\\MIUN\\quantitative_research\\video_compression\\videos\\BVI-HD\\BVI-HD_CDVL_videos\\ORIG\\Toys_1920x1080_30fps.mp4",
  "output": "C:\\Users\\Peter\\Desktop\\stuff\\MIUN\\quantitative_research\\video_compression\\compressed_videos\\BVI-HD\\hevc\\8\\Toys_1920x1080_30fps_hevc.mp4",
  "codec": "hevc",
  "ok": "Input #0, mov,mp4,m4a,3gp,3g2,mj2, from 'C:\\Users\\Peter\\Desktop\\stuff\\MIUN\\quantitative_research\\video_compression\\videos\\BVI-HD\\BVI-HD_CDVL_videos\\ORIG\\Toys_1920x1080_30fps.mp4':\n  Metadata:\n    major_brand     : isom\n    minor_version   : 512\n    compatible_brands: isomiso2avc1mp41\n    encoder         : Lavf54.28.101\n  Duration: 00:00:05.00, start: 0.000000, bitrate: 270887 kb/s\n  Stream #0:0[0x1](und): Video: h264 (High 4:4:4 Predictive) (avc1 / 0x31637661), yuv420p(progressive), 1920x1080, 270883 kb/s, 30 fps, 30 tbr, 30 tbn (default)\n    Metadata:\n      handler_name    : VideoHandler\n      vendor_id       : [0][0][0][0]\n[out#0/mp4 @ 0000022ad4c4ac00] Codec AVOption b:a (set bitrate (in bits/s)) has not been used for any stream. The most likely reason is either wrong type (e.g. a video option with no video streams) or that it is a private option of some decoder which was not actually used for any stream.\nStream mapping:\n  Stream #0:0 -> #0:0 (h264 (native) -> hevc (libx265))\nPress [q] to stop, [?] for help\n[libx265 @ 0000022ad6d000c0] Unknown option: \"aq-mode.\nx265 [info]: HEVC encoder version 4.1+190-8f11c33ac\nx265 [info]: build info [Windows][GCC 15.1.0][64 bit] 10bit\nx265 [info]: using cpu capabilities: MMX2 SSE2Fast LZCNT SSSE3 SSE4.2 AVX FMA3 BMI2 AVX2\nx265 [info]: Main 10 profile, Level-4 (Main tier)\nx265 [info]: Thread pool created using 12 threads\nx265 [info]: Slices                              : 1\nx265 [info]: frame threads / pool features       : 3 / wpp(17 rows)\nx265 [info]: Coding QT: max CU size, min CU size : 64 / 8\nx265 [info]: Residual QT: max TU size, max depth : 32 / 1 inter / 1 intra\nx265 [info]: ME / range / subpel / merge         : star / 57 / 3 / 3\nx265 [info]: Keyframe min / max / scenecut / bias  : 25 / 250 / 40 / 5.00 \nx265 [info]: Lookahead / bframes / badapt        : 25 / 4 / 2\nx265 [info]: b-pyramid / weightp / weightb       : 1 / 1 / 0\nx265 [info]: References / ref-limit  cu / depth  : 4 / on / on\nx265 [info]: AQ: mode / str / qg-size / cu-tree  : 2 / 1.0 / 32 / 1\nx265 [info]: Rate Control / qCompress            : ABR-8000 kbps / 0.60\nx265 [info]: VBV/HRD buffer / max-rate / init    : 8000 / 8000 / 0.750\nx265 [info]: tools: rect limit-modes rd=4 psy-rd=2.00 rdoq=2 psy-rdoq=1.00\nx265 [info]: tools: rskip mode=1 signhide tmvp strong-intra-smoothing lslices=4\nx265 [info]: tools: deblock sao dhdr10-info\nOutput #0, mp4, to 'C:\\Users\\Peter\\Desktop\\stuff\\MIUN\\quantitative_research\\video_compression\\compressed_videos\\BVI-HD\\hevc\\8\\Toys_1920x1080_30fps_hevc.mp4':\n  Metadata:\n    major_brand     : isom\n    minor_version   : 512\n    compatible_brands: isomiso2avc1mp41\n    encoder         : Lavf62.3.100\n  Stream #0:0(und): Video: hevc (hev1 / 0x31766568), yuv420p10le(tv, progressive), 1920x1080, q=2-31, 8000 kb/s, 30 fps, 15360 tbn (default)\n    Metadata:\n      encoder         : Lavc62.11.100 libx265\n      handler_name    : VideoHandler\n      vendor_id       : [0][0][0][0]\n    Side data:\n      cpb: bitrate max/min/avg: 8000000/0/8000000 buffer size: 8000000 vbv_delay: N/A\nframe=    0 fps=0.0 q=0.0 size=       0KiB time=N/A bitrate=N/A speed=N/A elapsed=0:00:01.02    \nframe=    0 fps=0.0 q=0.0 size=       0KiB time=N/A bitrate=N/A speed=N/A elapsed=0:00:01.55    \nframe=    0 fps=0.0 q=0.0 size=       0KiB time=N/A bitrate=N/A speed=N/A elapsed=0:00:02.07    \nframe=    0 fps=0.0 q=0.0 size=       0KiB time=N/A bitrate=N/A speed=N/A elapsed=0:00:02.60    \nframe=    0 fps=0.0 q=0.0 size=       0KiB time=N/A bitrate=N/A speed=N/A elapsed=0:00:03.12    \nframe=    0 fps=0.0 q=0.0 size=       0KiB time=N/A bitrate=N/A speed=N/A elapsed=0:00:03.65    \nframe=    0 fps=0.0 q=0.0 size=       0KiB time=N/A bitrate=N/A speed=N/A elapsed=0:00:04.21    \nframe=    0 fps=0.0 q=0.0 size=       0KiB time=N/A bitrate=N/A speed=N/A elapsed=0:00:04.76    \nframe=    0 fps=0.0 q=0.0 size=       0KiB time=N/A bitrate=N/A speed=N/A elapsed=0:00:05.29    \nframe=    0 fps=0.0 q=0.0 size=       0KiB time=N/A bitrate=N/A speed=N/A elapsed=0:00:05.81    \nframe=    0 fps=0.0 q=0.0 size=       0KiB time=N/A bitrate=N/A speed=N/A elapsed=0:00:06.31    \nframe=    0 fps=0.0 q=0.0 size=       0KiB time=N/A bitrate=N/A speed=N/A elapsed=0:00:06.84    \nframe=    0 fps=0.0 q=0.0 size=       0KiB time=N/A bitrate=N/A speed=N/A elapsed=0:00:07.35    \nframe=    0 fps=0.0 q=0.0 size=       0KiB time=N/A bitrate=N/A speed=N/A elapsed=0:00:07.89    \nframe=    0 fps=0.0 q=0.0 size=       0KiB time=N/A bitrate=N/A speed=N/A elapsed=0:00:08.43    \nframe=    0 fps=0.0 q=0.0 size=       0KiB time=N/A bitrate=N/A speed=N/A elapsed=0:00:08.96    \nframe=    0 fps=0.0 q=0.0 size=       0KiB time=N/A bitrate=N/A speed=N/A elapsed=0:00:09.47    \nframe=    0 fps=0.0 q=0.0 size=       0KiB time=N/A bitrate=N/A speed=N/A elapsed=0:00:09.99    \nframe=    0 fps=0.0 q=0.0 size=       0KiB time=N/A bitrate=N/A speed=N/A elapsed=0:00:10.52    \nframe=    0 fps=0.0 q=0.0 size=       0KiB time=N/A bitrate=N/A speed=N/A elapsed=0:00:11.06    \nframe=    0 fps=0.0 q=0.0 size=       0KiB time=N/A bitrate=N/A speed=N/A elapsed=0:00:11.58    \nframe=    0 fps=0.0 q=0.0 size=       0KiB time=N/A bitrate=N/A speed=N/A elapsed=0:00:12.11    \nframe=    1 fps=0.1 q=24.3 size=       0KiB time=-00:00:00.03 bitrate=N/A speed=N/A elapsed=0:00:12.62    \nframe=    2 fps=0.2 q=30.1 size=       0KiB time=00:00:00.00 bitrate=N/A speed=   0x elapsed=0:00:13.14    \nframe=    3 fps=0.2 q=34.1 size=       0KiB time=00:00:00.03 bitrate=  10.6kbits/s speed=0.00244x elapsed=0:00:13.66    \nframe=    3 fps=0.2 q=34.1 size=       0KiB time=00:00:00.03 bitrate=  10.6kbits/s speed=0.00235x elapsed=0:00:14.19    \nframe=    3 fps=0.2 q=34.1 size=       0KiB time=00:00:00.03 bitrate=  10.6kbits/s speed=0.00227x elapsed=0:00:14.70    \nframe=    3 fps=0.2 q=34.1 size=       0KiB time=00:00:00.03 bitrate=  10.6kbits/s speed=0.00219x elapsed=0:00:15.23    \nframe=    4 fps=0.3 q=36.4 size=       0KiB time=00:00:00.06 bitrate=   5.3kbits/s speed=0.00423x elapsed=0:00:15.76    \nframe=    4 fps=0.2 q=36.4 size=       0KiB time=00:00:00.06 bitrate=   5.3kbits/s speed=0.00409x elapsed=0:00:16.29    \nframe=    4 fps=0.2 q=36.4 size=       0KiB time=00:00:00.06 bitrate=   5.3kbits/s speed=0.00397x elapsed=0:00:16.80    \nframe=    5 fps=0.3 q=35.0 size=       0KiB time=00:00:00.10 bitrate=   3.5kbits/s speed=0.00577x elapsed=0:00:17.33    \nframe=    5 fps=0.3 q=35.0 size=       0KiB time=00:00:00.10 bitrate=   3.5kbits/s speed=0.00558x elapsed=0:00:17.93    \nframe=    5 fps=0.3 q=35.0 size=       0KiB time=00:00:00.10 bitrate=   3.5kbits/s speed=0.00538x elapsed=0:00:18.57    \nframe=    5 fps=0.3 q=35.0 size=       0KiB time=00:00:00.10 bitrate=   3.5kbits/s speed=0.00523x elapsed=0:00:19.12    \nframe=    5 fps=0.3 q=35.0 size=       0KiB time=00:00:00.10 bitrate=   3.5kbits/s speed=0.00506x elapsed=0:00:19.75    \nframe=    5 fps=0.2 q=35.0 size=       0KiB time=00:00:00.10 bitrate=   3.5kbits/s speed=0.00493x elapsed=0:00:20.29    \nframe=    5 fps=0.2 q=35.0 size=       0KiB time=00:00:00.10 bitrate=   3.5kbits/s speed=0.00479x elapsed=0:00:20.87    \nframe=    5 fps=0.2 q=35.0 size=       0KiB time=00:00:00.10 bitrate=   3.5kbits/s speed=0.00467x elapsed=0:00:21.42    \nframe=    5 fps=0.2 q=35.0 size=       0KiB time=00:00:00.10 bitrate=   3.5kbits/s speed=0.00455x elapsed=0:00:21.98    \nframe=    5 fps=0.2 q=35.0 size=       0KiB time=00:00:00.10 bitrate=   3.5kbits/s speed=0.00444x elapsed=0:00:22.54    \nframe=    6 fps=0.3 q=27.9 size=       0KiB time=00:00:00.13 bitrate=   2.6kbits/s speed=0.00577x elapsed=0:00:23.10    \nframe=    6 fps=0.3 q=27.9 size=       0KiB time=00:00:00.13 bitrate=   2.6kbits/s speed=0.00564x elapsed=0:00:23.62    \nframe=    7 fps=0.3 q=31.7 size=     256KiB time=00:00:00.16 bitrate=12585.0kbits/s speed=0.0069x elapsed=0:00:24.16    \nframe=    7 fps=0.3 q=31.7 size=     256KiB time=00:00:00.16 bitrate=12585.0kbits/s speed=0.00674x elapsed=0:00:24.71    \nframe=    7 fps=0.3 q=31.7 size=     256KiB time=00:00:00.16 bitrate=12585.0kbits/s speed=0.00658x elapsed=0:00:25.31    \nframe=    7 fps=0.3 q=31.7 size=     256KiB time=00:00:00.16 bitrate=12585.0kbits/s speed=0.00644x elapsed=0:00:25.87    \nframe=    7 fps=0.3 q=31.7 size=     256KiB time=00:00:00.16 bitrate=12585.0kbits/s speed=0.00631x elapsed=0:00:26.42    \nframe=    7 fps=0.3 q=31.7 size=     256KiB time=00:00:00.16 bitrate=12585.0kbits/s speed=0.00617x elapsed=0:00:27.01    \nframe=    7 fps=0.3 q=31.7 size=     256KiB time=00:00:00.16 bitrate=12585.0kbits/s speed=0.00605x elapsed=0:00:27.56    \nframe=    7 fps=0.2 q=31.7 size=     256KiB time=00:00:00.16 bitrate=12585.0kbits/s speed=0.00593x elapsed=0:00:28.10    \nframe=    7 fps=0.2 q=31.7 size=     256KiB time=00:00:00.16 bitrate=12585.0kbits/s speed=0.00582x elapsed=0:00:28.66    \nframe=    7 fps=0.2 q=31.7 size=     256KiB time=00:00:00.16 bitrate=12585.0kbits/s speed=0.00571x elapsed=0:00:29.18    \nframe=    7 fps=0.2 q=31.7 size=     256KiB time=00:00:00.16 bitrate=12585.0kbits/s speed=0.0056x elapsed=0:00:29.75    \nframe=    7 fps=0.2 q=31.7 size=     256KiB time=00:00:00.16 bitrate=12585.0kbits/s speed=0.0055x elapsed=0:00:30.28    \nframe=    7 fps=0.2 q=31.7 size=     256KiB time=00:00:00.16 bitrate=12585.0kbits/s speed=0.00541x elapsed=0:00:30.81    \nframe=    8 fps=0.3 q=33.1 size=     256KiB time=00:00:00.20 bitrate=10487.5kbits/s speed=0.00638x elapsed=0:00:31.35    \nframe=    8 fps=0.3 q=33.1 size=     256KiB time=00:00:00.20 bitrate=10487.5kbits/s speed=0.00627x elapsed=0:00:31.89    \nframe=    8 fps=0.2 q=33.1 size=     256KiB time=00:00:00.20 bitrate=10487.5kbits/s speed=0.00616x elapsed=0:00:32.47    \nframe=    8 fps=0.2 q=33.1 size=     256KiB time=00:00:00.20 bitrate=10487.5kbits/s speed=0.00605x elapsed=0:00:33.04    \nframe=    8 fps=0.2 q=33.1 size=     256KiB time=00:00:00.20 bitrate=10487.5kbits/s speed=0.00596x elapsed=0:00:33.57    \nframe=    9 fps=0.3 q=33.4 size=     256KiB time=00:00:00.23 bitrate=8989.3kbits/s speed=0.00684x elapsed=0:00:34.12    \nframe=    9 fps=0.3 q=33.4 size=     256KiB time=00:00:00.23 bitrate=8989.3kbits/s speed=0.00673x elapsed=0:00:34.65    \nframe=    9 fps=0.3 q=33.4 size=     256KiB time=00:00:00.23 bitrate=8989.3kbits/s speed=0.00663x elapsed=0:00:35.20    \nframe=    9 fps=0.3 q=33.4 size=     256KiB time=00:00:00.23 bitrate=8989.3kbits/s speed=0.00653x elapsed=0:00:35.74    \nframe=    9 fps=0.2 q=33.4 size=     256KiB time=00:00:00.23 bitrate=8989.3kbits/s speed=0.00643x elapsed=0:00:36.27    \nframe=    9 fps=0.2 q=33.4 size=     256KiB time=00:00:00.23 bitrate=8989.3kbits/s speed=0.00634x elapsed=0:00:36.79    \nframe=   10 fps=0.3 q=27.0 size=     256KiB time=00:00:00.26 bitrate=7865.6kbits/s speed=0.00714x elapsed=0:00:37.33    \nframe=   11 fps=0.3 q=30.7 size=     256KiB time=00:00:00.30 bitrate=6991.7kbits/s speed=0.00791x elapsed=0:00:37.92    \nframe=   11 fps=0.3 q=30.7 size=     256KiB time=00:00:00.30 bitrate=6991.7kbits/s speed=0.0078x elapsed=0:00:38.46    \nframe=   11 fps=0.3 q=30.7 size=     256KiB time=00:00:00.30 bitrate=6991.7kbits/s speed=0.0077x elapsed=0:00:38.97    \nframe=   11 fps=0.3 q=30.7 size=     256KiB time=00:00:00.30 bitrate=6991.7kbits/s speed=0.00759x elapsed=0:00:39.51    \nframe=   11 fps=0.3 q=30.7 size=     256KiB time=00:00:00.30 bitrate=6991.7kbits/s speed=0.00748x elapsed=0:00:40.08    \nframe=   11 fps=0.3 q=30.7 size=     256KiB time=00:00:00.30 bitrate=6991.7kbits/s speed=0.00738x elapsed=0:00:40.62    \nframe=   11 fps=0.3 q=30.7 size=     256KiB time=00:00:00.30 bitrate=6991.7kbits/s speed=0.00729x elapsed=0:00:41.15    \nframe=   11 fps=0.3 q=30.7 size=     256KiB time=00:00:00.30 bitrate=6991.7kbits/s speed=0.0072x elapsed=0:00:41.67    \nframe=   11 fps=0.3 q=30.7 size=     256KiB time=00:00:00.30 bitrate=6991.7kbits/s speed=0.00711x elapsed=0:00:42.21    \nframe=   12 fps=0.3 q=33.5 size=     256KiB time=00:00:00.33 bitrate=6292.5kbits/s speed=0.0078x elapsed=0:00:42.75    \nframe=   12 fps=0.3 q=33.5 size=     256KiB time=00:00:00.33 bitrate=6292.5kbits/s speed=0.0077x elapsed=0:00:43.28    \nframe=   12 fps=0.3 q=33.5 size=     256KiB time=00:00:00.33 bitrate=6292.5kbits/s speed=0.00761x elapsed=0:00:43.83    \nframe=   12 fps=0.3 q=33.5 size=     256KiB time=00:00:00.33 bitrate=6292.5kbits/s speed=0.00751x elapsed=0:00:44.35    \nframe=   12 fps=0.3 q=33.5 size=     256KiB time=00:00:00.33 bitrate=6292.5kbits/s speed=0.00743x elapsed=0:00:44.86    \nframe=   13 fps=0.3 q=33.6 size=     256KiB time=00:00:00.36 bitrate=5720.5kbits/s speed=0.00808x elapsed=0:00:45.39    \nframe=   13 fps=0.3 q=33.6 size=     256KiB time=00:00:00.36 bitrate=5720.5kbits/s speed=0.00798x elapsed=0:00:45.97    \nframe=   14 fps=0.3 q=26.8 size=     256KiB time=00:00:00.40 bitrate=5243.8kbits/s speed=0.00859x elapsed=0:00:46.58    \nframe=   14 fps=0.3 q=26.8 size=     256KiB time=00:00:00.40 bitrate=5243.8kbits/s speed=0.00849x elapsed=0:00:47.12    \nframe=   14 fps=0.3 q=26.8 size=     256KiB time=00:00:00.40 bitrate=5243.8kbits/s speed=0.00838x elapsed=0:00:47.73    \nframe=   14 fps=0.3 q=26.8 size=     256KiB time=00:00:00.40 bitrate=5243.8kbits/s speed=0.00827x elapsed=0:00:48.37    \nframe=   14 fps=0.3 q=26.8 size=     256KiB time=00:00:00.40 bitrate=5243.8kbits/s speed=0.00817x elapsed=0:00:48.98    \nframe=   14 fps=0.3 q=26.8 size=     256KiB time=00:00:00.40 bitrate=5243.8kbits/s speed=0.00808x elapsed=0:00:49.50    \nframe=   14 fps=0.3 q=26.8 size=     256KiB time=00:00:00.40 bitrate=5243.8kbits/s speed=0.00799x elapsed=0:00:50.08    \nframe=   15 fps=0.3 q=30.3 size=     512KiB time=00:00:00.43 bitrate=9680.0kbits/s speed=0.00856x elapsed=0:00:50.63    \nframe=   15 fps=0.3 q=30.3 size=     512KiB time=00:00:00.43 bitrate=9680.0kbits/s speed=0.00846x elapsed=0:00:51.20    \nframe=   15 fps=0.3 q=30.3 size=     512KiB time=00:00:00.43 bitrate=9680.0kbits/s speed=0.00837x elapsed=0:00:51.78    \nframe=   15 fps=0.3 q=30.3 size=     512KiB time=00:00:00.43 bitrate=9680.0kbits/s speed=0.00828x elapsed=0:00:52.30    \nframe=   15 fps=0.3 q=30.3 size=     512KiB time=00:00:00.43 bitrate=9680.0kbits/s speed=0.0082x elapsed=0:00:52.82    \nframe=   15 fps=0.3 q=30.3 size=     512KiB time=00:00:00.43 bitrate=9680.0kbits/s speed=0.00812x elapsed=0:00:53.34    \nframe=   15 fps=0.3 q=30.3 size=     512KiB time=00:00:00.43 bitrate=9680.0kbits/s speed=0.00804x elapsed=0:00:53.89    \nframe=   15 fps=0.3 q=30.3 size=     512KiB time=00:00:00.43 bitrate=9680.0kbits/s speed=0.00796x elapsed=0:00:54.41    \nframe=   15 fps=0.3 q=30.3 size=     512KiB time=00:00:00.43 bitrate=9680.0kbits/s speed=0.00788x elapsed=0:00:54.97    \nframe=   15 fps=0.3 q=30.3 size=     512KiB time=00:00:00.43 bitrate=9680.0kbits/s speed=0.00781x elapsed=0:00:55.49    \nframe=   15 fps=0.3 q=30.3 size=     512KiB time=00:00:00.43 bitrate=9680.0kbits/s speed=0.00774x elapsed=0:00:56.01    \nframe=   16 fps=0.3 q=33.7 size=     512KiB time=00:00:00.46 bitrate=8988.5kbits/s speed=0.00825x elapsed=0:00:56.54    \nframe=   16 fps=0.3 q=33.7 size=     512KiB time=00:00:00.46 bitrate=8988.5kbits/s speed=0.00818x elapsed=0:00:57.05    \nframe=   17 fps=0.3 q=33.6 size=     512KiB time=00:00:00.50 bitrate=8389.3kbits/s speed=0.00868x elapsed=0:00:57.59    \nframe=   17 fps=0.3 q=33.6 size=     512KiB time=00:00:00.50 bitrate=8389.3kbits/s speed=0.0086x elapsed=0:00:58.13    \nframe=   17 fps=0.3 q=33.6 size=     512KiB time=00:00:00.50 bitrate=8389.3kbits/s speed=0.00852x elapsed=0:00:58.66    \nframe=   17 fps=0.3 q=33.6 size=     512KiB time=00:00:00.50 bitrate=8389.3kbits/s speed=0.00845x elapsed=0:00:59.18    \nframe=   18 fps=0.3 q=26.6 size=     512KiB time=00:00:00.53 bitrate=7865.0kbits/s speed=0.00893x elapsed=0:00:59.70    \nframe=   18 fps=0.3 q=26.6 size=     512KiB time=00:00:00.53 bitrate=7865.0kbits/s speed=0.00885x elapsed=0:01:00.25    \nframe=   18 fps=0.3 q=26.6 size=     512KiB time=00:00:00.53 bitrate=7865.0kbits/s speed=0.00878x elapsed=0:01:00.77    \nframe=   18 fps=0.3 q=26.6 size=     512KiB time=00:00:00.53 bitrate=7865.0kbits/s speed=0.0087x elapsed=0:01:01.28    \nframe=   18 fps=0.3 q=26.6 size=     512KiB time=00:00:00.53 bitrate=7865.0kbits/s speed=0.00863x elapsed=0:01:01.80    \nframe=   18 fps=0.3 q=26.6 size=     512KiB time=00:00:00.53 bitrate=7865.0kbits/s speed=0.00856x elapsed=0:01:02.32    \nframe=   18 fps=0.3 q=26.6 size=     512KiB time=00:00:00.53 bitrate=7865.0kbits/s speed=0.00849x elapsed=0:01:02.84    \nframe=   18 fps=0.3 q=26.6 size=     512KiB time=00:00:00.53 bitrate=7865.0kbits/s speed=0.00842x elapsed=0:01:03.35    \nframe=   19 fps=0.3 q=30.2 size=     512KiB time=00:00:00.56 bitrate=7402.3kbits/s speed=0.00887x elapsed=0:01:03.88    \nframe=   19 fps=0.3 q=30.2 size=     512KiB time=00:00:00.56 bitrate=7402.3kbits/s speed=0.0088x elapsed=0:01:04.40    \nframe=   19 fps=0.3 q=30.2 size=     512KiB time=00:00:00.56 bitrate=7402.3kbits/s speed=0.00873x elapsed=0:01:04.91    \nframe=   19 fps=0.3 q=30.2 size=     512KiB time=00:00:00.56 bitrate=7402.3kbits/s speed=0.00866x elapsed=0:01:05.44    \nframe=   20 fps=0.3 q=33.4 size=     512KiB time=00:00:00.60 bitrate=6991.1kbits/s speed=0.0091x elapsed=0:01:05.96    \nframe=   20 fps=0.3 q=33.4 size=     512KiB time=00:00:00.60 bitrate=6991.1kbits/s speed=0.00902x elapsed=0:01:06.49    \nframe=   21 fps=0.3 q=26.6 size=     512KiB time=00:00:00.63 bitrate=6623.1kbits/s speed=0.00945x elapsed=0:01:07.01    \nframe=   21 fps=0.3 q=26.6 size=     512KiB time=00:00:00.63 bitrate=6623.1kbits/s speed=0.00938x elapsed=0:01:07.53    \nframe=   22 fps=0.3 q=30.0 size=     512KiB time=00:00:00.66 bitrate=6292.0kbits/s speed=0.00979x elapsed=0:01:08.07    \nframe=   22 fps=0.3 q=30.0 size=     512KiB time=00:00:00.66 bitrate=6292.0kbits/s speed=0.00972x elapsed=0:01:08.59    \nframe=   22 fps=0.3 q=30.0 size=     512KiB time=00:00:00.66 bitrate=6292.0kbits/s speed=0.00964x elapsed=0:01:09.12    \nframe=   23 fps=0.3 q=32.5 size=     512KiB time=00:00:00.70 bitrate=5992.4kbits/s speed=0.01x elapsed=0:01:09.66    \nframe=   23 fps=0.3 q=32.5 size=     512KiB time=00:00:00.70 bitrate=5992.4kbits/s speed=0.00997x elapsed=0:01:10.17    \nframe=   23 fps=0.3 q=32.5 size=     512KiB time=00:00:00.70 bitrate=5992.4kbits/s speed=0.0099x elapsed=0:01:10.69    \nframe=   23 fps=0.3 q=32.5 size=     512KiB time=00:00:00.70 bitrate=5992.4kbits/s speed=0.00983x elapsed=0:01:11.23    \nframe=   23 fps=0.3 q=32.5 size=     512KiB time=00:00:00.70 bitrate=5992.4kbits/s speed=0.00976x elapsed=0:01:11.75    \nframe=   23 fps=0.3 q=32.5 size=     512KiB time=00:00:00.70 bitrate=5992.4kbits/s speed=0.00968x elapsed=0:01:12.30    \nframe=   23 fps=0.3 q=32.5 size=     512KiB time=00:00:00.70 bitrate=5992.4kbits/s speed=0.00961x elapsed=0:01:12.86    \nframe=   24 fps=0.3 q=32.7 size=     768KiB time=00:00:00.73 bitrate=8579.7kbits/s speed=0.00999x elapsed=0:01:13.39    \nframe=   25 fps=0.3 q=26.4 size=     768KiB time=00:00:00.76 bitrate=8206.7kbits/s speed=0.0104x elapsed=0:01:13.92    \nframe=   25 fps=0.3 q=26.4 size=     768KiB time=00:00:00.76 bitrate=8206.7kbits/s speed=0.0103x elapsed=0:01:14.45    \nframe=   25 fps=0.3 q=26.4 size=     768KiB time=00:00:00.76 bitrate=8206.7kbits/s speed=0.0102x elapsed=0:01:15.00    \nframe=   25 fps=0.3 q=26.4 size=     768KiB time=00:00:00.76 bitrate=8206.7kbits/s speed=0.0102x elapsed=0:01:15.51    \nframe=   26 fps=0.3 q=31.3 size=     768KiB time=00:00:00.76 bitrate=8206.7kbits/s speed=0.0101x elapsed=0:01:16.09    \nframe=   26 fps=0.3 q=31.3 size=     768KiB time=00:00:00.80 bitrate=7864.8kbits/s speed=0.0104x elapsed=0:01:16.71    \nframe=   26 fps=0.3 q=31.3 size=     768KiB time=00:00:00.80 bitrate=7864.8kbits/s speed=0.0103x elapsed=0:01:17.32    \nframe=   26 fps=0.3 q=31.3 size=     768KiB time=00:00:00.80 bitrate=7864.8kbits/s speed=0.0103x elapsed=0:01:17.95    \nframe=   27 fps=0.3 q=32.8 size=     768KiB time=00:00:00.83 bitrate=7550.2kbits/s speed=0.0106x elapsed=0:01:18.48    \nframe=   27 fps=0.3 q=32.8 size=     768KiB time=00:00:00.83 bitrate=7550.2kbits/s speed=0.0105x elapsed=0:01:19.04    \nframe=   27 fps=0.3 q=32.8 size=     768KiB time=00:00:00.83 bitrate=7550.2kbits/s speed=0.0105x elapsed=0:01:19.68    \nframe=   27 fps=0.3 q=32.8 size=     768KiB time=00:00:00.83 bitrate=7550.2kbits/s speed=0.0104x elapsed=0:01:20.22    \nframe=   27 fps=0.3 q=32.8 size=     768KiB time=00:00:00.83 bitrate=7550.2kbits/s speed=0.0103x elapsed=0:01:20.75    \nframe=   27 fps=0.3 q=32.8 size=     768KiB time=00:00:00.83 bitrate=7550.2kbits/s speed=0.0102x elapsed=0:01:21.30    \nframe=   27 fps=0.3 q=32.8 size=     768KiB time=00:00:00.83 bitrate=7550.2kbits/s speed=0.0102x elapsed=0:01:21.93    \nframe=   27 fps=0.3 q=32.8 size=     768KiB time=00:00:00.83 bitrate=7550.2kbits/s speed=0.0101x elapsed=0:01:22.46    \nframe=   28 fps=0.3 q=32.8 size=     768KiB time=00:00:00.86 bitrate=7259.8kbits/s speed=0.0104x elapsed=0:01:22.98    \nframe=   28 fps=0.3 q=32.8 size=     768KiB time=00:00:00.86 bitrate=7259.8kbits/s speed=0.0104x elapsed=0:01:23.51    \nframe=   28 fps=0.3 q=32.8 size=     768KiB time=00:00:00.86 bitrate=7259.8kbits/s speed=0.0103x elapsed=0:01:24.02    \nframe=   29 fps=0.3 q=32.8 size=     768KiB time=00:00:00.90 bitrate=6990.9kbits/s speed=0.0106x elapsed=0:01:24.54    \nframe=   29 fps=0.3 q=32.8 size=     768KiB time=00:00:00.90 bitrate=6990.9kbits/s speed=0.0106x elapsed=0:01:25.06    \nframe=   29 fps=0.3 q=32.8 size=     768KiB time=00:00:00.90 bitrate=6990.9kbits/s speed=0.0105x elapsed=0:01:25.59    \nframe=   30 fps=0.3 q=26.2 size=     768KiB time=00:00:00.93 bitrate=6741.2kbits/s speed=0.0108x elapsed=0:01:26.11    \nframe=   31 fps=0.4 q=29.7 size=     768KiB time=00:00:00.96 bitrate=6508.8kbits/s speed=0.0112x elapsed=0:01:26.64    \nframe=   31 fps=0.4 q=29.7 size=     768KiB time=00:00:00.96 bitrate=6508.8kbits/s speed=0.0111x elapsed=0:01:27.18    \nframe=   31 fps=0.4 q=29.7 size=     768KiB time=00:00:00.96 bitrate=6508.8kbits/s speed=0.011x elapsed=0:01:27.70    \nframe=   31 fps=0.4 q=29.7 size=     768KiB time=00:00:00.96 bitrate=6508.8kbits/s speed=0.011x elapsed=0:01:28.24    \nframe=   31 fps=0.3 q=29.7 size=     768KiB time=00:00:00.96 bitrate=6508.8kbits/s speed=0.0109x elapsed=0:01:28.78    \nframe=   31 fps=0.3 q=29.7 size=     768KiB time=00:00:00.96 bitrate=6508.8kbits/s speed=0.0108x elapsed=0:01:29.30    \nframe=   32 fps=0.4 q=32.5 size=     768KiB time=00:00:01.00 bitrate=6291.8kbits/s speed=0.0111x elapsed=0:01:29.82    \nframe=   32 fps=0.4 q=32.5 size=     768KiB time=00:00:01.00 bitrate=6291.8kbits/s speed=0.0111x elapsed=0:01:30.34    \nframe=   33 fps=0.4 q=32.4 size=     768KiB time=00:00:01.03 bitrate=6088.8kbits/s speed=0.0114x elapsed=0:01:30.86    \nframe=   33 fps=0.4 q=32.4 size=     768KiB time=00:00:01.03 bitrate=6088.8kbits/s speed=0.0113x elapsed=0:01:31.41    \nframe=   33 fps=0.4 q=32.4 size=     768KiB time=00:00:01.03 bitrate=6088.8kbits/s speed=0.0112x elapsed=0:01:31.96    \nframe=   33 fps=0.4 q=32.4 size=     768KiB time=00:00:01.03 bitrate=6088.8kbits/s speed=0.0112x elapsed=0:01:32.49    \nframe=   33 fps=0.4 q=32.4 size=     768KiB time=00:00:01.03 bitrate=6088.8kbits/s speed=0.0111x elapsed=0:01:33.02    \nframe=   34 fps=0.4 q=26.3 size=    1024KiB time=00:00:01.06 bitrate=7864.6kbits/s speed=0.0114x elapsed=0:01:33.56    \nframe=   34 fps=0.4 q=26.3 size=    1024KiB time=00:00:01.06 bitrate=7864.6kbits/s speed=0.0113x elapsed=0:01:34.08    \nframe=   35 fps=0.4 q=29.5 size=    1024KiB time=00:00:01.10 bitrate=7626.3kbits/s speed=0.0116x elapsed=0:01:34.61    \nframe=   35 fps=0.4 q=29.5 size=    1024KiB time=00:00:01.10 bitrate=7626.3kbits/s speed=0.0116x elapsed=0:01:35.14    \nframe=   35 fps=0.4 q=29.5 size=    1024KiB time=00:00:01.10 bitrate=7626.3kbits/s speed=0.0115x elapsed=0:01:35.66    \nframe=   35 fps=0.4 q=29.5 size=    1024KiB time=00:00:01.10 bitrate=7626.3kbits/s speed=0.0114x elapsed=0:01:36.21    \nframe=   35 fps=0.4 q=29.5 size=    1024KiB time=00:00:01.10 bitrate=7626.3kbits/s speed=0.0114x elapsed=0:01:36.74    \nframe=   35 fps=0.4 q=29.5 size=    1024KiB time=00:00:01.10 bitrate=7626.3kbits/s speed=0.0113x elapsed=0:01:37.26    \nframe=   35 fps=0.4 q=29.5 size=    1024KiB time=00:00:01.10 bitrate=7626.3kbits/s speed=0.0112x elapsed=0:01:37.80    \nframe=   35 fps=0.4 q=29.5 size=    1024KiB time=00:00:01.10 bitrate=7626.3kbits/s speed=0.0112x elapsed=0:01:38.32    \nframe=   35 fps=0.4 q=29.5 size=    1024KiB time=00:00:01.10 bitrate=7626.3kbits/s speed=0.0111x elapsed=0:01:38.86    \nframe=   35 fps=0.4 q=29.5 size=    1024KiB time=00:00:01.10 bitrate=7626.3kbits/s speed=0.0111x elapsed=0:01:39.40    \nframe=   36 fps=0.4 q=32.6 size=    1024KiB time=00:00:01.13 bitrate=7402.0kbits/s speed=0.0113x elapsed=0:01:39.92    \nframe=   36 fps=0.4 q=32.6 size=    1024KiB time=00:00:01.13 bitrate=7402.0kbits/s speed=0.0113x elapsed=0:01:40.44    \nframe=   36 fps=0.4 q=32.6 size=    1024KiB time=00:00:01.13 bitrate=7402.0kbits/s speed=0.0112x elapsed=0:01:40.97    \nframe=   36 fps=0.4 q=32.6 size=    1024KiB time=00:00:01.13 bitrate=7402.0kbits/s speed=0.0112x elapsed=0:01:41.50    \nframe=   36 fps=0.4 q=32.6 size=    1024KiB time=00:00:01.13 bitrate=7402.0kbits/s speed=0.0111x elapsed=0:01:42.03    \nframe=   37 fps=0.4 q=32.5 size=    1024KiB time=00:00:01.16 bitrate=7190.5kbits/s speed=0.0114x elapsed=0:01:42.55    \nframe=   37 fps=0.4 q=32.5 size=    1024KiB time=00:00:01.16 bitrate=7190.5kbits/s speed=0.0113x elapsed=0:01:43.08    \nframe=   38 fps=0.4 q=26.4 size=    1024KiB time=00:00:01.20 bitrate=6990.8kbits/s speed=0.0116x elapsed=0:01:43.60    \nframe=   38 fps=0.4 q=26.4 size=    1024KiB time=00:00:01.20 bitrate=6990.8kbits/s speed=0.0115x elapsed=0:01:44.13    \nframe=   38 fps=0.4 q=26.4 size=    1024KiB time=00:00:01.20 bitrate=6990.8kbits/s speed=0.0115x elapsed=0:01:44.64    \nframe=   38 fps=0.4 q=26.4 size=    1024KiB time=00:00:01.20 bitrate=6990.8kbits/s speed=0.0114x elapsed=0:01:45.16    \nframe=   39 fps=0.4 q=29.5 size=    1024KiB time=00:00:01.23 bitrate=6801.9kbits/s speed=0.0117x elapsed=0:01:45.67    \nframe=   39 fps=0.4 q=29.5 size=    1024KiB time=00:00:01.23 bitrate=6801.9kbits/s speed=0.0116x elapsed=0:01:46.21    \nframe=   39 fps=0.4 q=29.5 size=    1024KiB time=00:00:01.23 bitrate=6801.9kbits/s speed=0.0116x elapsed=0:01:46.73    \nframe=   39 fps=0.4 q=29.5 size=    1024KiB time=00:00:01.23 bitrate=6801.9kbits/s speed=0.0115x elapsed=0:01:47.26    \nframe=   39 fps=0.4 q=29.5 size=    1024KiB time=00:00:01.23 bitrate=6801.9kbits/s speed=0.0114x elapsed=0:01:47.78    \nframe=   39 fps=0.4 q=29.5 size=    1024KiB time=00:00:01.23 bitrate=6801.9kbits/s speed=0.0114x elapsed=0:01:48.31    \nframe=   39 fps=0.4 q=29.5 size=    1024KiB time=00:00:01.23 bitrate=6801.9kbits/s speed=0.0113x elapsed=0:01:48.83    \nframe=   39 fps=0.4 q=29.5 size=    1024KiB time=00:00:01.23 bitrate=6801.9kbits/s speed=0.0113x elapsed=0:01:49.36    \nframe=   40 fps=0.4 q=32.6 size=    1024KiB time=00:00:01.26 bitrate=6622.9kbits/s speed=0.0115x elapsed=0:01:49.89    \nframe=   40 fps=0.4 q=32.6 size=    1024KiB time=00:00:01.26 bitrate=6622.9kbits/s speed=0.0115x elapsed=0:01:50.43    \nframe=   40 fps=0.4 q=32.6 size=    1024KiB time=00:00:01.26 bitrate=6622.9kbits/s speed=0.0114x elapsed=0:01:50.95    \nframe=   41 fps=0.4 q=32.6 size=    1024KiB time=00:00:01.30 bitrate=6453.0kbits/s speed=0.0117x elapsed=0:01:51.49    \nframe=   41 fps=0.4 q=32.6 size=    1024KiB time=00:00:01.30 bitrate=6453.0kbits/s speed=0.0116x elapsed=0:01:52.02    \nframe=   41 fps=0.4 q=32.6 size=    1024KiB time=00:00:01.30 bitrate=6453.0kbits/s speed=0.0115x elapsed=0:01:52.56    \nframe=   41 fps=0.4 q=32.6 size=    1024KiB time=00:00:01.30 bitrate=6453.0kbits/s speed=0.0115x elapsed=0:01:53.15    \nframe=   41 fps=0.4 q=32.6 size=    1024KiB time=00:00:01.30 bitrate=6453.0kbits/s speed=0.0114x elapsed=0:01:53.71    \nframe=   41 fps=0.4 q=32.6 size=    1024KiB time=00:00:01.30 bitrate=6453.0kbits/s speed=0.0114x elapsed=0:01:54.32    \nframe=   42 fps=0.4 q=26.1 size=    1024KiB time=00:00:01.33 bitrate=6291.7kbits/s speed=0.0116x elapsed=0:01:54.88    \nframe=   42 fps=0.4 q=26.1 size=    1024KiB time=00:00:01.33 bitrate=6291.7kbits/s speed=0.0116x elapsed=0:01:55.40    \nframe=   42 fps=0.4 q=26.1 size=    1024KiB time=00:00:01.33 bitrate=6291.7kbits/s speed=0.0115x elapsed=0:01:55.93    \nframe=   42 fps=0.4 q=26.1 size=    1024KiB time=00:00:01.33 bitrate=6291.7kbits/s speed=0.0114x elapsed=0:01:56.46    \nframe=   42 fps=0.4 q=26.1 size=    1024KiB time=00:00:01.33 bitrate=6291.7kbits/s speed=0.0114x elapsed=0:01:56.97    \nframe=   42 fps=0.4 q=26.1 size=    1024KiB time=00:00:01.33 bitrate=6291.7kbits/s speed=0.0113x elapsed=0:01:57.49    \nframe=   43 fps=0.4 q=29.4 size=    1280KiB time=00:00:01.36 bitrate=7672.8kbits/s speed=0.0116x elapsed=0:01:58.02    \nframe=   43 fps=0.4 q=29.4 size=    1280KiB time=00:00:01.36 bitrate=7672.8kbits/s speed=0.0115x elapsed=0:01:58.54    \nframe=   43 fps=0.4 q=29.4 size=    1280KiB time=00:00:01.36 bitrate=7672.8kbits/s speed=0.0115x elapsed=0:01:59.09    \nframe=   44 fps=0.4 q=32.6 size=    1280KiB time=00:00:01.40 bitrate=7490.1kbits/s speed=0.0117x elapsed=0:01:59.63    \nframe=   44 fps=0.4 q=32.6 size=    1280KiB time=00:00:01.40 bitrate=7490.1kbits/s speed=0.0117x elapsed=0:02:00.17    \nframe=   44 fps=0.4 q=32.6 size=    1280KiB time=00:00:01.40 bitrate=7490.1kbits/s speed=0.0116x elapsed=0:02:00.70    \nframe=   45 fps=0.4 q=26.1 size=    1280KiB time=00:00:01.43 bitrate=7315.9kbits/s speed=0.0118x elapsed=0:02:01.20    \nframe=   46 fps=0.4 q=29.1 size=    1280KiB time=00:00:01.46 bitrate=7149.6kbits/s speed=0.012x elapsed=0:02:01.74    \nframe=   46 fps=0.4 q=29.1 size=    1280KiB time=00:00:01.46 bitrate=7149.6kbits/s speed=0.012x elapsed=0:02:02.27    \nframe=   46 fps=0.4 q=29.1 size=    1280KiB time=00:00:01.46 bitrate=7149.6kbits/s speed=0.0119x elapsed=0:02:02.80    \nframe=   46 fps=0.4 q=29.1 size=    1280KiB time=00:00:01.46 bitrate=7149.6kbits/s speed=0.0119x elapsed=0:02:03.30    \nframe=   46 fps=0.4 q=29.1 size=    1280KiB time=00:00:01.46 bitrate=7149.6kbits/s speed=0.0118x elapsed=0:02:03.82    \nframe=   47 fps=0.4 q=32.1 size=    1280KiB time=00:00:01.50 bitrate=6990.7kbits/s speed=0.0121x elapsed=0:02:04.33    \nframe=   47 fps=0.4 q=32.1 size=    1280KiB time=00:00:01.50 bitrate=6990.7kbits/s speed=0.012x elapsed=0:02:04.86    \nframe=   47 fps=0.4 q=32.1 size=    1280KiB time=00:00:01.50 bitrate=6990.7kbits/s speed=0.012x elapsed=0:02:05.37    \nframe=   48 fps=0.4 q=32.7 size=    1280KiB time=00:00:01.53 bitrate=6838.8kbits/s speed=0.0122x elapsed=0:02:05.89    \nframe=   48 fps=0.4 q=32.7 size=    1280KiB time=00:00:01.53 bitrate=6838.8kbits/s speed=0.0121x elapsed=0:02:06.44    \nframe=   48 fps=0.4 q=32.7 size=    1280KiB time=00:00:01.53 bitrate=6838.8kbits/s speed=0.0121x elapsed=0:02:06.96    \nframe=   48 fps=0.4 q=32.7 size=    1280KiB time=00:00:01.53 bitrate=6838.8kbits/s speed=0.012x elapsed=0:02:07.48    \nframe=   49 fps=0.4 q=25.9 size=    1280KiB time=00:00:01.56 bitrate=6693.3kbits/s speed=0.0122x elapsed=0:02:07.99    \nframe=   49 fps=0.4 q=25.9 size=    1280KiB time=00:00:01.56 bitrate=6693.3kbits/s speed=0.0122x elapsed=0:02:08.51    \nframe=   50 fps=0.4 q=30.9 size=    1536KiB time=00:00:01.60 bitrate=7864.5kbits/s speed=0.0124x elapsed=0:02:09.02    \nframe=   50 fps=0.4 q=30.9 size=    1536KiB time=00:00:01.60 bitrate=7864.5kbits/s speed=0.0124x elapsed=0:02:09.54    \nframe=   51 fps=0.4 q=32.2 size=    1536KiB time=00:00:01.63 bitrate=7704.0kbits/s speed=0.0126x elapsed=0:02:10.06    \nframe=   51 fps=0.4 q=32.2 size=    1536KiB time=00:00:01.63 bitrate=7704.0kbits/s speed=0.0125x elapsed=0:02:10.57    \nframe=   51 fps=0.4 q=32.2 size=    1536KiB time=00:00:01.63 bitrate=7704.0kbits/s speed=0.0125x elapsed=0:02:11.08    \nframe=   51 fps=0.4 q=32.2 size=    1536KiB time=00:00:01.63 bitrate=7704.0kbits/s speed=0.0124x elapsed=0:02:11.61    \nframe=   51 fps=0.4 q=32.2 size=    1536KiB time=00:00:01.63 bitrate=7704.0kbits/s speed=0.0124x elapsed=0:02:12.17    \nframe=   51 fps=0.4 q=32.2 size=    1536KiB time=00:00:01.63 bitrate=7704.0kbits/s speed=0.0123x elapsed=0:02:12.71    \nframe=   51 fps=0.4 q=32.2 size=    1536KiB time=00:00:01.63 bitrate=7704.0kbits/s speed=0.0123x elapsed=0:02:13.32    \nframe=   51 fps=0.4 q=32.2 size=    1536KiB time=00:00:01.63 bitrate=7704.0kbits/s speed=0.0122x elapsed=0:02:13.97    \nframe=   51 fps=0.4 q=32.2 size=    1536KiB time=00:00:01.63 bitrate=7704.0kbits/s speed=0.0121x elapsed=0:02:14.54    \nframe=   51 fps=0.4 q=32.2 size=    1536KiB time=00:00:01.63 bitrate=7704.0kbits/s speed=0.0121x elapsed=0:02:15.10    \nframe=   51 fps=0.4 q=32.2 size=    1536KiB time=00:00:01.63 bitrate=7704.0kbits/s speed=0.012x elapsed=0:02:15.62    \nframe=   52 fps=0.4 q=31.9 size=    1536KiB time=00:00:01.66 bitrate=7550.0kbits/s speed=0.0122x elapsed=0:02:16.13    \nframe=   52 fps=0.4 q=31.9 size=    1536KiB time=00:00:01.66 bitrate=7550.0kbits/s speed=0.0122x elapsed=0:02:16.67    \nframe=   52 fps=0.4 q=31.9 size=    1536KiB time=00:00:01.66 bitrate=7550.0kbits/s speed=0.0121x elapsed=0:02:17.22    \nframe=   53 fps=0.4 q=32.5 size=    1536KiB time=00:00:01.70 bitrate=7401.9kbits/s speed=0.0123x elapsed=0:02:17.74    \nframe=   53 fps=0.4 q=32.5 size=    1536KiB time=00:00:01.70 bitrate=7401.9kbits/s speed=0.0123x elapsed=0:02:18.29    \nframe=   53 fps=0.4 q=32.5 size=    1536KiB time=00:00:01.70 bitrate=7401.9kbits/s speed=0.0122x elapsed=0:02:18.82    \nframe=   53 fps=0.4 q=32.5 size=    1536KiB time=00:00:01.70 bitrate=7401.9kbits/s speed=0.0122x elapsed=0:02:19.35    \nframe=   53 fps=0.4 q=32.5 size=    1536KiB time=00:00:01.70 bitrate=7401.9kbits/s speed=0.0122x elapsed=0:02:19.88    \nframe=   54 fps=0.4 q=26.0 size=    1536KiB time=00:00:01.73 bitrate=7259.6kbits/s speed=0.0123x elapsed=0:02:20.41    \nframe=   54 fps=0.4 q=26.0 size=    1536KiB time=00:00:01.73 bitrate=7259.6kbits/s speed=0.0123x elapsed=0:02:20.95    \nframe=   55 fps=0.4 q=29.5 size=    1536KiB time=00:00:01.76 bitrate=7122.6kbits/s speed=0.0125x elapsed=0:02:21.47    \nframe=   55 fps=0.4 q=29.5 size=    1536KiB time=00:00:01.76 bitrate=7122.6kbits/s speed=0.0124x elapsed=0:02:21.99    \nframe=   55 fps=0.4 q=29.5 size=    1536KiB time=00:00:01.76 bitrate=7122.6kbits/s speed=0.0124x elapsed=0:02:22.51    \nframe=   55 fps=0.4 q=29.5 size=    1536KiB time=00:00:01.76 bitrate=7122.6kbits/s speed=0.0124x elapsed=0:02:23.02    \nframe=   55 fps=0.4 q=29.5 size=    1536KiB time=00:00:01.76 bitrate=7122.6kbits/s speed=0.0123x elapsed=0:02:23.54    \nframe=   55 fps=0.4 q=29.5 size=    1536KiB time=00:00:01.76 bitrate=7122.6kbits/s speed=0.0123x elapsed=0:02:24.06    \nframe=   56 fps=0.4 q=32.4 size=    1536KiB time=00:00:01.80 bitrate=6990.7kbits/s speed=0.0124x elapsed=0:02:24.60    \nframe=   56 fps=0.4 q=32.4 size=    1536KiB time=00:00:01.80 bitrate=6990.7kbits/s speed=0.0124x elapsed=0:02:25.14    \nframe=   56 fps=0.4 q=32.4 size=    1536KiB time=00:00:01.80 bitrate=6990.7kbits/s speed=0.0124x elapsed=0:02:25.65    \nframe=   57 fps=0.4 q=32.2 size=    1536KiB time=00:00:01.83 bitrate=6863.6kbits/s speed=0.0125x elapsed=0:02:26.16    \nframe=   58 fps=0.4 q=26.0 size=    1536KiB time=00:00:01.86 bitrate=6741.0kbits/s speed=0.0127x elapsed=0:02:26.69    \nframe=   58 fps=0.4 q=26.0 size=    1536KiB time=00:00:01.86 bitrate=6741.0kbits/s speed=0.0127x elapsed=0:02:27.24    \nframe=   59 fps=0.4 q=29.2 size=    1792KiB time=00:00:01.90 bitrate=7726.5kbits/s speed=0.0129x elapsed=0:02:27.75    \nframe=   59 fps=0.4 q=29.2 size=    1792KiB time=00:00:01.90 bitrate=7726.5kbits/s speed=0.0128x elapsed=0:02:28.29    \nframe=   59 fps=0.4 q=29.2 size=    1792KiB time=00:00:01.90 bitrate=7726.5kbits/s speed=0.0128x elapsed=0:02:28.82    \nframe=   59 fps=0.4 q=29.2 size=    1792KiB time=00:00:01.90 bitrate=7726.5kbits/s speed=0.0127x elapsed=0:02:29.34    \nframe=   59 fps=0.4 q=29.2 size=    1792KiB time=00:00:01.90 bitrate=7726.5kbits/s speed=0.0127x elapsed=0:02:29.88    \nframe=   59 fps=0.4 q=29.2 size=    1792KiB time=00:00:01.90 bitrate=7726.5kbits/s speed=0.0126x elapsed=0:02:30.43    \nframe=   60 fps=0.4 q=32.3 size=    1792KiB time=00:00:01.93 bitrate=7593.3kbits/s speed=0.0128x elapsed=0:02:30.96    \nframe=   60 fps=0.4 q=32.3 size=    1792KiB time=00:00:01.93 bitrate=7593.3kbits/s speed=0.0128x elapsed=0:02:31.49    \nframe=   61 fps=0.4 q=32.5 size=    1792KiB time=00:00:01.96 bitrate=7464.6kbits/s speed=0.0129x elapsed=0:02:32.02    \nframe=   61 fps=0.4 q=32.5 size=    1792KiB time=00:00:01.96 bitrate=7464.6kbits/s speed=0.0129x elapsed=0:02:32.55    \nframe=   62 fps=0.4 q=26.3 size=    1792KiB time=00:00:02.00 bitrate=7340.2kbits/s speed=0.0131x elapsed=0:02:33.06    \nframe=   62 fps=0.4 q=26.3 size=    1792KiB time=00:00:02.00 bitrate=7340.2kbits/s speed=0.013x elapsed=0:02:33.58    \nframe=   63 fps=0.4 q=29.0 size=    1792KiB time=00:00:02.03 bitrate=7219.9kbits/s speed=0.0132x elapsed=0:02:34.13    \nframe=   63 fps=0.4 q=29.0 size=    1792KiB time=00:00:02.03 bitrate=7219.9kbits/s speed=0.0131x elapsed=0:02:34.65    \nframe=   64 fps=0.4 q=32.5 size=    1792KiB time=00:00:02.06 bitrate=7103.4kbits/s speed=0.0133x elapsed=0:02:35.17    \nframe=   64 fps=0.4 q=32.5 size=    1792KiB time=00:00:02.06 bitrate=7103.4kbits/s speed=0.0133x elapsed=0:02:35.70    \nframe=   64 fps=0.4 q=32.5 size=    1792KiB time=00:00:02.06 bitrate=7103.4kbits/s speed=0.0132x elapsed=0:02:36.22    \nframe=   64 fps=0.4 q=32.5 size=    1792KiB time=00:00:02.06 bitrate=7103.4kbits/s speed=0.0132x elapsed=0:02:36.74    \nframe=   64 fps=0.4 q=32.5 size=    1792KiB time=00:00:02.06 bitrate=7103.4kbits/s speed=0.0131x elapsed=0:02:37.25    \nframe=   65 fps=0.4 q=32.2 size=    1792KiB time=00:00:02.10 bitrate=6990.7kbits/s speed=0.0133x elapsed=0:02:37.77    \nframe=   66 fps=0.4 q=26.2 size=    1792KiB time=00:00:02.13 bitrate=6881.4kbits/s speed=0.0135x elapsed=0:02:38.30    \nframe=   66 fps=0.4 q=26.2 size=    1792KiB time=00:00:02.13 bitrate=6881.4kbits/s speed=0.0134x elapsed=0:02:38.83    \nframe=   66 fps=0.4 q=26.2 size=    1792KiB time=00:00:02.13 bitrate=6881.4kbits/s speed=0.0134x elapsed=0:02:39.41    \nframe=   66 fps=0.4 q=26.2 size=    1792KiB time=00:00:02.13 bitrate=6881.4kbits/s speed=0.0133x elapsed=0:02:39.96    \nframe=   66 fps=0.4 q=26.2 size=    1792KiB time=00:00:02.13 bitrate=6881.4kbits/s speed=0.0133x elapsed=0:02:40.51    \nframe=   66 fps=0.4 q=26.2 size=    1792KiB time=00:00:02.13 bitrate=6881.4kbits/s speed=0.0132x elapsed=0:02:41.04    \nframe=   67 fps=0.4 q=29.0 size=    2048KiB time=00:00:02.16 bitrate=7743.5kbits/s speed=0.0134x elapsed=0:02:41.55    \nframe=   67 fps=0.4 q=29.0 size=    2048KiB time=00:00:02.16 bitrate=7743.5kbits/s speed=0.0134x elapsed=0:02:42.07    \nframe=   67 fps=0.4 q=29.0 size=    2048KiB time=00:00:02.16 bitrate=7743.5kbits/s speed=0.0133x elapsed=0:02:42.58    \nframe=   67 fps=0.4 q=29.0 size=    2048KiB time=00:00:02.16 bitrate=7743.5kbits/s speed=0.0133x elapsed=0:02:43.11    \nframe=   68 fps=0.4 q=32.3 size=    2048KiB time=00:00:02.20 bitrate=7626.2kbits/s speed=0.0134x elapsed=0:02:43.64    \nframe=   68 fps=0.4 q=32.3 size=    2048KiB time=00:00:02.20 bitrate=7626.2kbits/s speed=0.0134x elapsed=0:02:44.20    \nframe=   69 fps=0.4 q=26.1 size=    2048KiB time=00:00:02.23 bitrate=7512.3kbits/s speed=0.0136x elapsed=0:02:44.73    \nframe=   70 fps=0.4 q=29.2 size=    2048KiB time=00:00:02.26 bitrate=7401.9kbits/s speed=0.0137x elapsed=0:02:45.27    \nframe=   70 fps=0.4 q=29.2 size=    2048KiB time=00:00:02.26 bitrate=7401.9kbits/s speed=0.0137x elapsed=0:02:45.78    \nframe=   70 fps=0.4 q=29.2 size=    2048KiB time=00:00:02.26 bitrate=7401.9kbits/s speed=0.0136x elapsed=0:02:46.31    \nframe=   70 fps=0.4 q=29.2 size=    2048KiB time=00:00:02.26 bitrate=7401.9kbits/s speed=0.0136x elapsed=0:02:46.87    \nframe=   70 fps=0.4 q=29.2 size=    2048KiB time=00:00:02.26 bitrate=7401.9kbits/s speed=0.0135x elapsed=0:02:47.45    \nframe=   70 fps=0.4 q=29.2 size=    2048KiB time=00:00:02.26 bitrate=7401.9kbits/s speed=0.0135x elapsed=0:02:48.01    \nframe=   70 fps=0.4 q=29.2 size=    2048KiB time=00:00:02.26 bitrate=7401.9kbits/s speed=0.0134x elapsed=0:02:48.62    \nframe=   70 fps=0.4 q=29.2 size=    2048KiB time=00:00:02.26 bitrate=7401.9kbits/s speed=0.0134x elapsed=0:02:49.25    \nframe=   70 fps=0.4 q=29.2 size=    2048KiB time=00:00:02.26 bitrate=7401.9kbits/s speed=0.0133x elapsed=0:02:49.86    \nframe=   70 fps=0.4 q=29.2 size=    2048KiB time=00:00:02.26 bitrate=7401.9kbits/s speed=0.0133x elapsed=0:02:50.38    \nframe=   71 fps=0.4 q=32.0 size=    2048KiB time=00:00:02.30 bitrate=7294.6kbits/s speed=0.0135x elapsed=0:02:50.94    \nframe=   71 fps=0.4 q=32.0 size=    2048KiB time=00:00:02.30 bitrate=7294.6kbits/s speed=0.0134x elapsed=0:02:51.52    \nframe=   71 fps=0.4 q=32.0 size=    2048KiB time=00:00:02.30 bitrate=7294.6kbits/s speed=0.0134x elapsed=0:02:52.03    \nframe=   71 fps=0.4 q=32.0 size=    2048KiB time=00:00:02.30 bitrate=7294.6kbits/s speed=0.0133x elapsed=0:02:52.56    \nframe=   71 fps=0.4 q=32.0 size=    2048KiB time=00:00:02.30 bitrate=7294.6kbits/s speed=0.0133x elapsed=0:02:53.11    \nframe=   72 fps=0.4 q=32.2 size=    2048KiB time=00:00:02.33 bitrate=7190.4kbits/s speed=0.0134x elapsed=0:02:53.65    \nframe=   72 fps=0.4 q=32.2 size=    2048KiB time=00:00:02.33 bitrate=7190.4kbits/s speed=0.0134x elapsed=0:02:54.19    \nframe=   72 fps=0.4 q=32.2 size=    2048KiB time=00:00:02.33 bitrate=7190.4kbits/s speed=0.0134x elapsed=0:02:54.72    \nframe=   72 fps=0.4 q=32.2 size=    2048KiB time=00:00:02.33 bitrate=7190.4kbits/s speed=0.0133x elapsed=0:02:55.25    \nframe=   73 fps=0.4 q=26.2 size=    2048KiB time=00:00:02.36 bitrate=7089.1kbits/s speed=0.0135x elapsed=0:02:55.75    \nframe=   74 fps=0.4 q=29.0 size=    2304KiB time=00:00:02.40 bitrate=7864.5kbits/s speed=0.0136x elapsed=0:02:56.28    \nframe=   74 fps=0.4 q=29.0 size=    2304KiB time=00:00:02.40 bitrate=7864.5kbits/s speed=0.0136x elapsed=0:02:56.81    \nframe=   74 fps=0.4 q=29.0 size=    2304KiB time=00:00:02.40 bitrate=7864.5kbits/s speed=0.0135x elapsed=0:02:57.37    \nframe=   75 fps=0.4 q=31.9 size=    2304KiB time=00:00:02.43 bitrate=7756.7kbits/s speed=0.0137x elapsed=0:02:57.89    \nframe=   75 fps=0.4 q=31.9 size=    2304KiB time=00:00:02.43 bitrate=7756.7kbits/s speed=0.0136x elapsed=0:02:58.43    \nframe=   75 fps=0.4 q=31.9 size=    2304KiB time=00:00:02.43 bitrate=7756.7kbits/s speed=0.0136x elapsed=0:02:58.95    \nframe=   76 fps=0.4 q=31.7 size=    2304KiB time=00:00:02.46 bitrate=7651.9kbits/s speed=0.0137x elapsed=0:02:59.46    \nframe=   76 fps=0.4 q=31.7 size=    2304KiB time=00:00:02.46 bitrate=7651.9kbits/s speed=0.0137x elapsed=0:02:59.98    \nframe=   77 fps=0.4 q=25.8 size=    2304KiB time=00:00:02.50 bitrate=7549.9kbits/s speed=0.0138x elapsed=0:03:00.53    \nframe=   78 fps=0.4 q=28.8 size=    2304KiB time=00:00:02.53 bitrate=7450.5kbits/s speed=0.014x elapsed=0:03:01.05    \nframe=   79 fps=0.4 q=31.8 size=    2304KiB time=00:00:02.56 bitrate=7353.8kbits/s speed=0.0141x elapsed=0:03:01.56    \nframe=   79 fps=0.4 q=31.8 size=    2304KiB time=00:00:02.56 bitrate=7353.8kbits/s speed=0.0141x elapsed=0:03:02.07    \nframe=   80 fps=0.4 q=31.8 size=    2304KiB time=00:00:02.60 bitrate=7259.5kbits/s speed=0.0142x elapsed=0:03:02.58    \nframe=   80 fps=0.4 q=31.8 size=    2304KiB time=00:00:02.60 bitrate=7259.5kbits/s speed=0.0142x elapsed=0:03:03.11    \nframe=   80 fps=0.4 q=31.8 size=    2304KiB time=00:00:02.60 bitrate=7259.5kbits/s speed=0.0142x elapsed=0:03:03.63    \nframe=   81 fps=0.4 q=25.7 size=    2304KiB time=00:00:02.63 bitrate=7167.6kbits/s speed=0.0143x elapsed=0:03:04.19    \nframe=   81 fps=0.4 q=25.7 size=    2304KiB time=00:00:02.63 bitrate=7167.6kbits/s speed=0.0143x elapsed=0:03:04.72    \nframe=   81 fps=0.4 q=25.7 size=    2304KiB time=00:00:02.63 bitrate=7167.6kbits/s speed=0.0142x elapsed=0:03:05.23    \nframe=   82 fps=0.4 q=28.7 size=    2560KiB time=00:00:02.66 bitrate=7864.5kbits/s speed=0.0144x elapsed=0:03:05.76    \nframe=   82 fps=0.4 q=28.7 size=    2560KiB time=00:00:02.66 bitrate=7864.5kbits/s speed=0.0143x elapsed=0:03:06.27    \nframe=   82 fps=0.4 q=28.7 size=    2560KiB time=00:00:02.66 bitrate=7864.5kbits/s speed=0.0143x elapsed=0:03:06.79    \nframe=   82 fps=0.4 q=28.7 size=    2560KiB time=00:00:02.66 bitrate=7864.5kbits/s speed=0.0142x elapsed=0:03:07.30    \nframe=   82 fps=0.4 q=28.7 size=    2560KiB time=00:00:02.66 bitrate=7864.5kbits/s speed=0.0142x elapsed=0:03:07.84    \nframe=   83 fps=0.4 q=31.6 size=    2560KiB time=00:00:02.70 bitrate=7767.4kbits/s speed=0.0143x elapsed=0:03:08.35    \nframe=   83 fps=0.4 q=31.6 size=    2560KiB time=00:00:02.70 bitrate=7767.4kbits/s speed=0.0143x elapsed=0:03:08.86    \nframe=   83 fps=0.4 q=31.6 size=    2560KiB time=00:00:02.70 bitrate=7767.4kbits/s speed=0.0143x elapsed=0:03:09.38    \nframe=   83 fps=0.4 q=31.6 size=    2560KiB time=00:00:02.70 bitrate=7767.4kbits/s speed=0.0142x elapsed=0:03:09.92    \nframe=   83 fps=0.4 q=31.6 size=    2560KiB time=00:00:02.70 bitrate=7767.4kbits/s speed=0.0142x elapsed=0:03:10.45    \nframe=   83 fps=0.4 q=31.6 size=    2560KiB time=00:00:02.70 bitrate=7767.4kbits/s speed=0.0141x elapsed=0:03:10.96    \nframe=   84 fps=0.4 q=31.7 size=    2560KiB time=00:00:02.73 bitrate=7672.6kbits/s speed=0.0143x elapsed=0:03:11.48    \nframe=   84 fps=0.4 q=31.7 size=    2560KiB time=00:00:02.73 bitrate=7672.6kbits/s speed=0.0142x elapsed=0:03:12.00    \nframe=   85 fps=0.4 q=25.7 size=    2560KiB time=00:00:02.76 bitrate=7580.2kbits/s speed=0.0144x elapsed=0:03:12.51    \nframe=   86 fps=0.4 q=29.8 size=    2560KiB time=00:00:02.80 bitrate=7490.0kbits/s speed=0.0145x elapsed=0:03:13.03    \nframe=   86 fps=0.4 q=29.8 size=    2560KiB time=00:00:02.80 bitrate=7490.0kbits/s speed=0.0145x elapsed=0:03:13.55    \nframe=   87 fps=0.4 q=31.7 size=    2560KiB time=00:00:02.83 bitrate=7401.8kbits/s speed=0.0146x elapsed=0:03:14.09    \nframe=   87 fps=0.4 q=31.7 size=    2560KiB time=00:00:02.83 bitrate=7401.8kbits/s speed=0.0146x elapsed=0:03:14.65    \nframe=   87 fps=0.4 q=31.7 size=    2560KiB time=00:00:02.83 bitrate=7401.8kbits/s speed=0.0145x elapsed=0:03:15.17    \nframe=   87 fps=0.4 q=31.7 size=    2560KiB time=00:00:02.83 bitrate=7401.8kbits/s speed=0.0145x elapsed=0:03:15.71    \nframe=   87 fps=0.4 q=31.7 size=    2560KiB time=00:00:02.83 bitrate=7401.8kbits/s speed=0.0144x elapsed=0:03:16.25    \nframe=   87 fps=0.4 q=31.7 size=    2560KiB time=00:00:02.83 bitrate=7401.8kbits/s speed=0.0144x elapsed=0:03:16.78    \nframe=   87 fps=0.4 q=31.7 size=    2560KiB time=00:00:02.83 bitrate=7401.8kbits/s speed=0.0144x elapsed=0:03:17.32    \nframe=   87 fps=0.4 q=31.7 size=    2560KiB time=00:00:02.83 bitrate=7401.8kbits/s speed=0.0143x elapsed=0:03:17.85    \nframe=   88 fps=0.4 q=31.5 size=    2560KiB time=00:00:02.86 bitrate=7315.8kbits/s speed=0.0144x elapsed=0:03:18.39    \nframe=   88 fps=0.4 q=31.5 size=    2560KiB time=00:00:02.86 bitrate=7315.8kbits/s speed=0.0144x elapsed=0:03:18.93    \nframe=   88 fps=0.4 q=31.5 size=    2560KiB time=00:00:02.86 bitrate=7315.8kbits/s speed=0.0144x elapsed=0:03:19.45    \nframe=   88 fps=0.4 q=31.5 size=    2560KiB time=00:00:02.86 bitrate=7315.8kbits/s speed=0.0143x elapsed=0:03:19.97    \nframe=   89 fps=0.4 q=31.2 size=    2560KiB time=00:00:02.90 bitrate=7231.7kbits/s speed=0.0145x elapsed=0:03:20.49    \nframe=   89 fps=0.4 q=31.2 size=    2560KiB time=00:00:02.90 bitrate=7231.7kbits/s speed=0.0144x elapsed=0:03:21.01    \nframe=   89 fps=0.4 q=31.2 size=    2560KiB time=00:00:02.90 bitrate=7231.7kbits/s speed=0.0144x elapsed=0:03:21.53    \nframe=   89 fps=0.4 q=31.2 size=    2560KiB time=00:00:02.90 bitrate=7231.7kbits/s speed=0.0144x elapsed=0:03:22.06    \nframe=   90 fps=0.4 q=25.4 size=    2560KiB time=00:00:02.93 bitrate=7149.5kbits/s speed=0.0145x elapsed=0:03:22.58    \nframe=   90 fps=0.4 q=25.4 size=    2560KiB time=00:00:02.93 bitrate=7149.5kbits/s speed=0.0144x elapsed=0:03:23.11    \nframe=   90 fps=0.4 q=25.4 size=    2560KiB time=00:00:02.93 bitrate=7149.5kbits/s speed=0.0144x elapsed=0:03:23.66    \nframe=   90 fps=0.4 q=25.4 size=    2560KiB time=00:00:02.93 bitrate=7149.5kbits/s speed=0.0144x elapsed=0:03:24.24    \nframe=   90 fps=0.4 q=25.4 size=    2560KiB time=00:00:02.93 bitrate=7149.5kbits/s speed=0.0143x elapsed=0:03:24.85    \nframe=   90 fps=0.4 q=25.4 size=    2560KiB time=00:00:02.93 bitrate=7149.5kbits/s speed=0.0143x elapsed=0:03:25.47    \nframe=   90 fps=0.4 q=25.4 size=    2560KiB time=00:00:02.93 bitrate=7149.5kbits/s speed=0.0142x elapsed=0:03:26.12    \nframe=   90 fps=0.4 q=25.4 size=    2560KiB time=00:00:02.93 bitrate=7149.5kbits/s speed=0.0142x elapsed=0:03:26.75    \nframe=   91 fps=0.4 q=29.9 size=    2816KiB time=00:00:02.96 bitrate=7776.1kbits/s speed=0.0143x elapsed=0:03:27.28    \nframe=   91 fps=0.4 q=29.9 size=    2816KiB time=00:00:02.96 bitrate=7776.1kbits/s speed=0.0143x elapsed=0:03:27.88    \nframe=   91 fps=0.4 q=29.9 size=    2816KiB time=00:00:02.96 bitrate=7776.1kbits/s speed=0.0142x elapsed=0:03:28.42    \nframe=   91 fps=0.4 q=29.9 size=    2816KiB time=00:00:02.96 bitrate=7776.1kbits/s speed=0.0142x elapsed=0:03:29.00    \nframe=   91 fps=0.4 q=29.9 size=    2816KiB time=00:00:02.96 bitrate=7776.1kbits/s speed=0.0142x elapsed=0:03:29.60    \nframe=   91 fps=0.4 q=29.9 size=    2816KiB time=00:00:02.96 bitrate=7776.1kbits/s speed=0.0141x elapsed=0:03:30.24    \nframe=   91 fps=0.4 q=29.9 size=    2816KiB time=00:00:02.96 bitrate=7776.1kbits/s speed=0.0141x elapsed=0:03:30.85    \nframe=   92 fps=0.4 q=31.4 size=    2816KiB time=00:00:03.00 bitrate=7689.7kbits/s speed=0.0142x elapsed=0:03:31.36    \nframe=   92 fps=0.4 q=31.4 size=    2816KiB time=00:00:03.00 bitrate=7689.7kbits/s speed=0.0142x elapsed=0:03:31.88    \nframe=   92 fps=0.4 q=31.4 size=    2816KiB time=00:00:03.00 bitrate=7689.7kbits/s speed=0.0141x elapsed=0:03:32.41    \nframe=   92 fps=0.4 q=31.4 size=    2816KiB time=00:00:03.00 bitrate=7689.7kbits/s speed=0.0141x elapsed=0:03:32.95    \nframe=   92 fps=0.4 q=31.4 size=    2816KiB time=00:00:03.00 bitrate=7689.7kbits/s speed=0.0141x elapsed=0:03:33.50    \nframe=   92 fps=0.4 q=31.4 size=    2816KiB time=00:00:03.00 bitrate=7689.7kbits/s speed=0.014x elapsed=0:03:34.02    \nframe=   92 fps=0.4 q=31.4 size=    2816KiB time=00:00:03.00 bitrate=7689.7kbits/s speed=0.014x elapsed=0:03:34.58    \nframe=   93 fps=0.4 q=31.3 size=    2816KiB time=00:00:03.03 bitrate=7605.2kbits/s speed=0.0141x elapsed=0:03:35.11    \nframe=   93 fps=0.4 q=31.3 size=    2816KiB time=00:00:03.03 bitrate=7605.2kbits/s speed=0.0141x elapsed=0:03:35.64    \nframe=   93 fps=0.4 q=31.3 size=    2816KiB time=00:00:03.03 bitrate=7605.2kbits/s speed=0.014x elapsed=0:03:36.16    \nframe=   94 fps=0.4 q=31.0 size=    2816KiB time=00:00:03.06 bitrate=7522.5kbits/s speed=0.0142x elapsed=0:03:36.69    \nframe=   94 fps=0.4 q=31.0 size=    2816KiB time=00:00:03.06 bitrate=7522.5kbits/s speed=0.0141x elapsed=0:03:37.23    \nframe=   94 fps=0.4 q=31.0 size=    2816KiB time=00:00:03.06 bitrate=7522.5kbits/s speed=0.0141x elapsed=0:03:37.78    \nframe=   95 fps=0.4 q=25.3 size=    2816KiB time=00:00:03.10 bitrate=7441.6kbits/s speed=0.0142x elapsed=0:03:38.28    \nframe=   95 fps=0.4 q=25.3 size=    2816KiB time=00:00:03.10 bitrate=7441.6kbits/s speed=0.0142x elapsed=0:03:38.81    \nframe=   96 fps=0.4 q=28.4 size=    2816KiB time=00:00:03.13 bitrate=7362.5kbits/s speed=0.0143x elapsed=0:03:39.33    \nframe=   96 fps=0.4 q=28.4 size=    2816KiB time=00:00:03.13 bitrate=7362.5kbits/s speed=0.0143x elapsed=0:03:39.85    \nframe=   97 fps=0.4 q=30.8 size=    2816KiB time=00:00:03.16 bitrate=7285.0kbits/s speed=0.0144x elapsed=0:03:40.37    \nframe=   97 fps=0.4 q=30.8 size=    2816KiB time=00:00:03.16 bitrate=7285.0kbits/s speed=0.0143x elapsed=0:03:40.89    \nframe=   98 fps=0.4 q=30.2 size=    2816KiB time=00:00:03.20 bitrate=7209.1kbits/s speed=0.0145x elapsed=0:03:41.41    \nframe=   98 fps=0.4 q=30.2 size=    2816KiB time=00:00:03.20 bitrate=7209.1kbits/s speed=0.0144x elapsed=0:03:41.94    \nframe=   98 fps=0.4 q=30.2 size=    2816KiB time=00:00:03.20 bitrate=7209.1kbits/s speed=0.0144x elapsed=0:03:42.46    \nframe=   99 fps=0.4 q=25.2 size=    2816KiB time=00:00:03.23 bitrate=7134.8kbits/s speed=0.0145x elapsed=0:03:42.98    \nframe=  100 fps=0.4 q=28.2 size=    3072KiB time=00:00:03.26 bitrate=7703.9kbits/s speed=0.0146x elapsed=0:03:43.52    \nframe=  100 fps=0.4 q=28.2 size=    3072KiB time=00:00:03.26 bitrate=7703.9kbits/s speed=0.0146x elapsed=0:03:44.05    \nframe=  100 fps=0.4 q=28.2 size=    3072KiB time=00:00:03.26 bitrate=7703.9kbits/s speed=0.0145x elapsed=0:03:44.57    \nframe=  100 fps=0.4 q=28.2 size=    3072KiB time=00:00:03.26 bitrate=7703.9kbits/s speed=0.0145x elapsed=0:03:45.08    \nframe=  101 fps=0.4 q=31.2 size=    3072KiB time=00:00:03.30 bitrate=7626.1kbits/s speed=0.0146x elapsed=0:03:45.60    \nframe=  102 fps=0.5 q=30.9 size=    3072KiB time=00:00:03.33 bitrate=7549.9kbits/s speed=0.0147x elapsed=0:03:46.12    \nframe=  102 fps=0.5 q=30.9 size=    3072KiB time=00:00:03.33 bitrate=7549.9kbits/s speed=0.0147x elapsed=0:03:46.64    \nframe=  103 fps=0.5 q=25.6 size=    3072KiB time=00:00:03.36 bitrate=7475.1kbits/s speed=0.0148x elapsed=0:03:47.17    \nframe=  103 fps=0.5 q=25.6 size=    3072KiB time=00:00:03.36 bitrate=7475.1kbits/s speed=0.0148x elapsed=0:03:47.72    \nframe=  104 fps=0.5 q=28.3 size=    3072KiB time=00:00:03.40 bitrate=7401.8kbits/s speed=0.0149x elapsed=0:03:48.31    \nframe=  104 fps=0.5 q=28.3 size=    3072KiB time=00:00:03.40 bitrate=7401.8kbits/s speed=0.0149x elapsed=0:03:48.83    \nframe=  104 fps=0.5 q=28.3 size=    3072KiB time=00:00:03.40 bitrate=7401.8kbits/s speed=0.0148x elapsed=0:03:49.38    \nframe=  105 fps=0.5 q=31.3 size=    3072KiB time=00:00:03.43 bitrate=7330.0kbits/s speed=0.0149x elapsed=0:03:49.92    \nframe=  105 fps=0.5 q=31.3 size=    3072KiB time=00:00:03.43 bitrate=7330.0kbits/s speed=0.0149x elapsed=0:03:50.45    \nframe=  105 fps=0.5 q=31.3 size=    3072KiB time=00:00:03.43 bitrate=7330.0kbits/s speed=0.0149x elapsed=0:03:50.99    \nframe=  105 fps=0.5 q=31.3 size=    3072KiB time=00:00:03.43 bitrate=7330.0kbits/s speed=0.0148x elapsed=0:03:51.51    \nframe=  106 fps=0.5 q=30.9 size=    3072KiB time=00:00:03.46 bitrate=7259.5kbits/s speed=0.0149x elapsed=0:03:52.05    \nframe=  106 fps=0.5 q=30.9 size=    3072KiB time=00:00:03.46 bitrate=7259.5kbits/s speed=0.0149x elapsed=0:03:52.57    \nframe=  106 fps=0.5 q=30.9 size=    3072KiB time=00:00:03.46 bitrate=7259.5kbits/s speed=0.0149x elapsed=0:03:53.12    \nframe=  106 fps=0.5 q=30.9 size=    3072KiB time=00:00:03.46 bitrate=7259.5kbits/s speed=0.0148x elapsed=0:03:53.67    \nframe=  106 fps=0.5 q=30.9 size=    3072KiB time=00:00:03.46 bitrate=7259.5kbits/s speed=0.0148x elapsed=0:03:54.19    \nframe=  107 fps=0.5 q=25.5 size=    3072KiB time=00:00:03.50 bitrate=7190.3kbits/s speed=0.0149x elapsed=0:03:54.72    \nframe=  107 fps=0.5 q=25.5 size=    3072KiB time=00:00:03.50 bitrate=7190.3kbits/s speed=0.0149x elapsed=0:03:55.25    \nframe=  108 fps=0.5 q=28.3 size=    3328KiB time=00:00:03.53 bitrate=7716.0kbits/s speed=0.015x elapsed=0:03:55.79    \nframe=  108 fps=0.5 q=28.3 size=    3328KiB time=00:00:03.53 bitrate=7716.0kbits/s speed=0.0149x elapsed=0:03:56.37    \nframe=  108 fps=0.5 q=28.3 size=    3328KiB time=00:00:03.53 bitrate=7716.0kbits/s speed=0.0149x elapsed=0:03:56.92    \nframe=  108 fps=0.5 q=28.3 size=    3328KiB time=00:00:03.53 bitrate=7716.0kbits/s speed=0.0149x elapsed=0:03:57.47    \nframe=  108 fps=0.5 q=28.3 size=    3328KiB time=00:00:03.53 bitrate=7716.0kbits/s speed=0.0148x elapsed=0:03:58.10    \nframe=  108 fps=0.5 q=28.3 size=    3328KiB time=00:00:03.53 bitrate=7716.0kbits/s speed=0.0148x elapsed=0:03:58.77    \nframe=  108 fps=0.5 q=28.3 size=    3328KiB time=00:00:03.53 bitrate=7716.0kbits/s speed=0.0148x elapsed=0:03:59.36    \nframe=  108 fps=0.5 q=28.3 size=    3328KiB time=00:00:03.53 bitrate=7716.0kbits/s speed=0.0147x elapsed=0:03:59.95    \nframe=  108 fps=0.4 q=28.3 size=    3328KiB time=00:00:03.53 bitrate=7716.0kbits/s speed=0.0147x elapsed=0:04:00.57    \nframe=  108 fps=0.4 q=28.3 size=    3328KiB time=00:00:03.53 bitrate=7716.0kbits/s speed=0.0147x elapsed=0:04:01.14    \nframe=  108 fps=0.4 q=28.3 size=    3328KiB time=00:00:03.53 bitrate=7716.0kbits/s speed=0.0146x elapsed=0:04:01.72    \nframe=  108 fps=0.4 q=28.3 size=    3328KiB time=00:00:03.53 bitrate=7716.0kbits/s speed=0.0146x elapsed=0:04:02.26    \nframe=  108 fps=0.4 q=28.3 size=    3328KiB time=00:00:03.53 bitrate=7716.0kbits/s speed=0.0146x elapsed=0:04:02.79    \nframe=  109 fps=0.4 q=31.0 size=    3328KiB time=00:00:03.56 bitrate=7643.9kbits/s speed=0.0147x elapsed=0:04:03.31    \nframe=  109 fps=0.4 q=31.0 size=    3328KiB time=00:00:03.56 bitrate=7643.9kbits/s speed=0.0146x elapsed=0:04:03.82    \nframe=  109 fps=0.4 q=31.0 size=    3328KiB time=00:00:03.56 bitrate=7643.9kbits/s speed=0.0146x elapsed=0:04:04.35    \nframe=  110 fps=0.4 q=30.9 size=    3328KiB time=00:00:03.60 bitrate=7573.1kbits/s speed=0.0147x elapsed=0:04:04.92    \nframe=  110 fps=0.4 q=30.9 size=    3328KiB time=00:00:03.60 bitrate=7573.1kbits/s speed=0.0147x elapsed=0:04:05.45    \nframe=  110 fps=0.4 q=30.9 size=    3328KiB time=00:00:03.60 bitrate=7573.1kbits/s speed=0.0146x elapsed=0:04:06.07    \nframe=  110 fps=0.4 q=30.9 size=    3328KiB time=00:00:03.60 bitrate=7573.1kbits/s speed=0.0146x elapsed=0:04:06.66    \nframe=  110 fps=0.4 q=30.9 size=    3328KiB time=00:00:03.60 bitrate=7573.1kbits/s speed=0.0146x elapsed=0:04:07.25    \nframe=  111 fps=0.4 q=25.2 size=    3328KiB time=00:00:03.63 bitrate=7503.7kbits/s speed=0.0147x elapsed=0:04:07.79    \nframe=  111 fps=0.4 q=25.2 size=    3328KiB time=00:00:03.63 bitrate=7503.7kbits/s speed=0.0146x elapsed=0:04:08.44    \nframe=  111 fps=0.4 q=25.2 size=    3328KiB time=00:00:03.63 bitrate=7503.7kbits/s speed=0.0146x elapsed=0:04:08.97    \nframe=  111 fps=0.4 q=25.2 size=    3328KiB time=00:00:03.63 bitrate=7503.7kbits/s speed=0.0146x elapsed=0:04:09.59    \nframe=  111 fps=0.4 q=25.2 size=    3328KiB time=00:00:03.63 bitrate=7503.7kbits/s speed=0.0145x elapsed=0:04:10.17    \nframe=  111 fps=0.4 q=25.2 size=    3328KiB time=00:00:03.63 bitrate=7503.7kbits/s speed=0.0145x elapsed=0:04:10.79    \nframe=  111 fps=0.4 q=25.2 size=    3328KiB time=00:00:03.63 bitrate=7503.7kbits/s speed=0.0145x elapsed=0:04:11.38    \nframe=  111 fps=0.4 q=25.2 size=    3328KiB time=00:00:03.63 bitrate=7503.7kbits/s speed=0.0144x elapsed=0:04:11.97    \nframe=  111 fps=0.4 q=25.2 size=    3328KiB time=00:00:03.63 bitrate=7503.7kbits/s speed=0.0144x elapsed=0:04:12.56    \nframe=  112 fps=0.4 q=28.0 size=    3328KiB time=00:00:03.66 bitrate=7435.5kbits/s speed=0.0145x elapsed=0:04:13.07    \nframe=  112 fps=0.4 q=28.0 size=    3328KiB time=00:00:03.66 bitrate=7435.5kbits/s speed=0.0145x elapsed=0:04:13.66    \nframe=  112 fps=0.4 q=28.0 size=    3328KiB time=00:00:03.66 bitrate=7435.5kbits/s speed=0.0144x elapsed=0:04:14.18    \nframe=  112 fps=0.4 q=28.0 size=    3328KiB time=00:00:03.66 bitrate=7435.5kbits/s speed=0.0144x elapsed=0:04:14.71    \nframe=  112 fps=0.4 q=28.0 size=    3328KiB time=00:00:03.66 bitrate=7435.5kbits/s speed=0.0144x elapsed=0:04:15.23    \nframe=  112 fps=0.4 q=28.0 size=    3328KiB time=00:00:03.66 bitrate=7435.5kbits/s speed=0.0143x elapsed=0:04:15.83    \nframe=  112 fps=0.4 q=28.0 size=    3328KiB time=00:00:03.66 bitrate=7435.5kbits/s speed=0.0143x elapsed=0:04:16.37    \nframe=  112 fps=0.4 q=28.0 size=    3328KiB time=00:00:03.66 bitrate=7435.5kbits/s speed=0.0143x elapsed=0:04:16.91    \nframe=  113 fps=0.4 q=30.9 size=    3328KiB time=00:00:03.70 bitrate=7368.5kbits/s speed=0.0144x elapsed=0:04:17.52    \nframe=  113 fps=0.4 q=30.9 size=    3328KiB time=00:00:03.70 bitrate=7368.5kbits/s speed=0.0143x elapsed=0:04:18.03    \nframe=  113 fps=0.4 q=30.9 size=    3328KiB time=00:00:03.70 bitrate=7368.5kbits/s speed=0.0143x elapsed=0:04:18.56    \nframe=  113 fps=0.4 q=30.9 size=    3328KiB time=00:00:03.70 bitrate=7368.5kbits/s speed=0.0143x elapsed=0:04:19.07    \nframe=  114 fps=0.4 q=30.6 size=    3328KiB time=00:00:03.73 bitrate=7302.7kbits/s speed=0.0144x elapsed=0:04:19.60    \nframe=  114 fps=0.4 q=30.6 size=    3328KiB time=00:00:03.73 bitrate=7302.7kbits/s speed=0.0144x elapsed=0:04:20.14    \nframe=  114 fps=0.4 q=30.6 size=    3328KiB time=00:00:03.73 bitrate=7302.7kbits/s speed=0.0143x elapsed=0:04:20.67    \nframe=  114 fps=0.4 q=30.6 size=    3328KiB time=00:00:03.73 bitrate=7302.7kbits/s speed=0.0143x elapsed=0:04:21.21    \nframe=  114 fps=0.4 q=30.6 size=    3328KiB time=00:00:03.73 bitrate=7302.7kbits/s speed=0.0143x elapsed=0:04:21.78    \nframe=  114 fps=0.4 q=30.6 size=    3328KiB time=00:00:03.73 bitrate=7302.7kbits/s speed=0.0142x elapsed=0:04:22.32    \nframe=  114 fps=0.4 q=30.6 size=    3328KiB time=00:00:03.73 bitrate=7302.7kbits/s speed=0.0142x elapsed=0:04:22.86    \nframe=  115 fps=0.4 q=25.4 size=    3328KiB time=00:00:03.76 bitrate=7238.1kbits/s speed=0.0143x elapsed=0:04:23.45    \nframe=  115 fps=0.4 q=25.4 size=    3328KiB time=00:00:03.76 bitrate=7238.1kbits/s speed=0.0143x elapsed=0:04:24.03    \nframe=  115 fps=0.4 q=25.4 size=    3328KiB time=00:00:03.76 bitrate=7238.1kbits/s speed=0.0142x elapsed=0:04:24.56    \nframe=  115 fps=0.4 q=25.4 size=    3328KiB time=00:00:03.76 bitrate=7238.1kbits/s speed=0.0142x elapsed=0:04:25.07    \nframe=  115 fps=0.4 q=25.4 size=    3328KiB time=00:00:03.76 bitrate=7238.1kbits/s speed=0.0142x elapsed=0:04:25.62    \nframe=  116 fps=0.4 q=28.1 size=    3584KiB time=00:00:03.80 bitrate=7726.4kbits/s speed=0.0143x elapsed=0:04:26.16    \nframe=  116 fps=0.4 q=28.1 size=    3584KiB time=00:00:03.80 bitrate=7726.4kbits/s speed=0.0142x elapsed=0:04:26.68    \nframe=  116 fps=0.4 q=28.1 size=    3584KiB time=00:00:03.80 bitrate=7726.4kbits/s speed=0.0142x elapsed=0:04:27.22    \nframe=  116 fps=0.4 q=28.1 size=    3584KiB time=00:00:03.80 bitrate=7726.4kbits/s speed=0.0142x elapsed=0:04:27.77    \nframe=  117 fps=0.4 q=31.1 size=    3584KiB time=00:00:03.83 bitrate=7659.3kbits/s speed=0.0143x elapsed=0:04:28.30    \nframe=  117 fps=0.4 q=31.1 size=    3584KiB time=00:00:03.83 bitrate=7659.3kbits/s speed=0.0143x elapsed=0:04:28.83    \nframe=  117 fps=0.4 q=31.1 size=    3584KiB time=00:00:03.83 bitrate=7659.3kbits/s speed=0.0142x elapsed=0:04:29.38    \nframe=  117 fps=0.4 q=31.1 size=    3584KiB time=00:00:03.83 bitrate=7659.3kbits/s speed=0.0142x elapsed=0:04:29.90    \nframe=  118 fps=0.4 q=30.8 size=    3584KiB time=00:00:03.86 bitrate=7593.2kbits/s speed=0.0143x elapsed=0:04:30.42    \nframe=  118 fps=0.4 q=30.8 size=    3584KiB time=00:00:03.86 bitrate=7593.2kbits/s speed=0.0143x elapsed=0:04:31.05    \nframe=  118 fps=0.4 q=30.8 size=    3584KiB time=00:00:03.86 bitrate=7593.2kbits/s speed=0.0142x elapsed=0:04:31.63    \nframe=  118 fps=0.4 q=30.8 size=    3584KiB time=00:00:03.86 bitrate=7593.2kbits/s speed=0.0142x elapsed=0:04:32.29    \nframe=  118 fps=0.4 q=30.8 size=    3584KiB time=00:00:03.86 bitrate=7593.2kbits/s speed=0.0142x elapsed=0:04:32.92    \nframe=  118 fps=0.4 q=30.8 size=    3584KiB time=00:00:03.86 bitrate=7593.2kbits/s speed=0.0141x elapsed=0:04:33.50    \nframe=  119 fps=0.4 q=25.3 size=    3584KiB time=00:00:03.90 bitrate=7528.3kbits/s speed=0.0142x elapsed=0:04:34.04    \nframe=  119 fps=0.4 q=25.3 size=    3584KiB time=00:00:03.90 bitrate=7528.3kbits/s speed=0.0142x elapsed=0:04:34.58    \nframe=  119 fps=0.4 q=25.3 size=    3584KiB time=00:00:03.90 bitrate=7528.3kbits/s speed=0.0142x elapsed=0:04:35.16    \nframe=  119 fps=0.4 q=25.3 size=    3584KiB time=00:00:03.90 bitrate=7528.3kbits/s speed=0.0141x elapsed=0:04:35.68    \nframe=  119 fps=0.4 q=25.3 size=    3584KiB time=00:00:03.90 bitrate=7528.3kbits/s speed=0.0141x elapsed=0:04:36.21    \nframe=  119 fps=0.4 q=25.3 size=    3584KiB time=00:00:03.90 bitrate=7528.3kbits/s speed=0.0141x elapsed=0:04:36.78    \nframe=  120 fps=0.4 q=28.1 size=    3584KiB time=00:00:03.93 bitrate=7464.5kbits/s speed=0.0142x elapsed=0:04:37.33    \nframe=  120 fps=0.4 q=28.1 size=    3584KiB time=00:00:03.93 bitrate=7464.5kbits/s speed=0.0142x elapsed=0:04:37.88    \nframe=  120 fps=0.4 q=28.1 size=    3584KiB time=00:00:03.93 bitrate=7464.5kbits/s speed=0.0141x elapsed=0:04:38.48    \nframe=  120 fps=0.4 q=28.1 size=    3584KiB time=00:00:03.93 bitrate=7464.5kbits/s speed=0.0141x elapsed=0:04:39.06    \nframe=  120 fps=0.4 q=28.1 size=    3584KiB time=00:00:03.93 bitrate=7464.5kbits/s speed=0.0141x elapsed=0:04:39.60    \nframe=  121 fps=0.4 q=31.0 size=    3584KiB time=00:00:03.96 bitrate=7401.8kbits/s speed=0.0142x elapsed=0:04:40.18    \nframe=  121 fps=0.4 q=31.0 size=    3584KiB time=00:00:03.96 bitrate=7401.8kbits/s speed=0.0141x elapsed=0:04:40.72    \nframe=  121 fps=0.4 q=31.0 size=    3584KiB time=00:00:03.96 bitrate=7401.8kbits/s speed=0.0141x elapsed=0:04:41.24    \nframe=  121 fps=0.4 q=31.0 size=    3584KiB time=00:00:03.96 bitrate=7401.8kbits/s speed=0.0141x elapsed=0:04:41.78    \nframe=  121 fps=0.4 q=31.0 size=    3584KiB time=00:00:03.96 bitrate=7401.8kbits/s speed=0.014x elapsed=0:04:42.35    \nframe=  121 fps=0.4 q=31.0 size=    3584KiB time=00:00:03.96 bitrate=7401.8kbits/s speed=0.014x elapsed=0:04:42.88    \nframe=  122 fps=0.4 q=30.9 size=    3584KiB time=00:00:04.00 bitrate=7340.1kbits/s speed=0.0141x elapsed=0:04:43.43    \nframe=  122 fps=0.4 q=30.9 size=    3584KiB time=00:00:04.00 bitrate=7340.1kbits/s speed=0.0141x elapsed=0:04:44.03    \nframe=  122 fps=0.4 q=30.9 size=    3584KiB time=00:00:04.00 bitrate=7340.1kbits/s speed=0.0141x elapsed=0:04:44.58    \nframe=  122 fps=0.4 q=30.9 size=    3584KiB time=00:00:04.00 bitrate=7340.1kbits/s speed=0.014x elapsed=0:04:45.11    \nframe=  122 fps=0.4 q=30.9 size=    3584KiB time=00:00:04.00 bitrate=7340.1kbits/s speed=0.014x elapsed=0:04:45.67    \nframe=  123 fps=0.4 q=25.2 size=    3584KiB time=00:00:04.03 bitrate=7279.5kbits/s speed=0.0141x elapsed=0:04:46.20    \nframe=  123 fps=0.4 q=25.2 size=    3584KiB time=00:00:04.03 bitrate=7279.5kbits/s speed=0.0141x elapsed=0:04:46.83    \nframe=  123 fps=0.4 q=25.2 size=    3584KiB time=00:00:04.03 bitrate=7279.5kbits/s speed=0.014x elapsed=0:04:47.41    \nframe=  123 fps=0.4 q=25.2 size=    3584KiB time=00:00:04.03 bitrate=7279.5kbits/s speed=0.014x elapsed=0:04:47.99    \nframe=  123 fps=0.4 q=25.2 size=    3584KiB time=00:00:04.03 bitrate=7279.5kbits/s speed=0.014x elapsed=0:04:48.59    \nframe=  123 fps=0.4 q=25.2 size=    3584KiB time=00:00:04.03 bitrate=7279.5kbits/s speed=0.0139x elapsed=0:04:49.13    \nframe=  124 fps=0.4 q=27.8 size=    3840KiB time=00:00:04.06 bitrate=7735.5kbits/s speed=0.014x elapsed=0:04:49.68    \nframe=  124 fps=0.4 q=27.8 size=    3840KiB time=00:00:04.06 bitrate=7735.5kbits/s speed=0.014x elapsed=0:04:50.26    \nframe=  124 fps=0.4 q=27.8 size=    3840KiB time=00:00:04.06 bitrate=7735.5kbits/s speed=0.014x elapsed=0:04:50.77    \nframe=  124 fps=0.4 q=27.8 size=    3840KiB time=00:00:04.06 bitrate=7735.5kbits/s speed=0.014x elapsed=0:04:51.29    \nframe=  124 fps=0.4 q=27.8 size=    3840KiB time=00:00:04.06 bitrate=7735.5kbits/s speed=0.0139x elapsed=0:04:51.83    \nframe=  124 fps=0.4 q=27.8 size=    3840KiB time=00:00:04.06 bitrate=7735.5kbits/s speed=0.0139x elapsed=0:04:52.41    \nframe=  124 fps=0.4 q=27.8 size=    3840KiB time=00:00:04.06 bitrate=7735.5kbits/s speed=0.0139x elapsed=0:04:52.94    \nframe=  124 fps=0.4 q=27.8 size=    3840KiB time=00:00:04.06 bitrate=7735.5kbits/s speed=0.0139x elapsed=0:04:53.48    \nframe=  124 fps=0.4 q=27.8 size=    3840KiB time=00:00:04.06 bitrate=7735.5kbits/s speed=0.0138x elapsed=0:04:53.99    \nframe=  125 fps=0.4 q=30.7 size=    3840KiB time=00:00:04.10 bitrate=7672.6kbits/s speed=0.0139x elapsed=0:04:54.55    \nframe=  125 fps=0.4 q=30.7 size=    3840KiB time=00:00:04.10 bitrate=7672.6kbits/s speed=0.0139x elapsed=0:04:55.11    \nframe=  125 fps=0.4 q=30.7 size=    3840KiB time=00:00:04.10 bitrate=7672.6kbits/s speed=0.0139x elapsed=0:04:55.68    \nframe=  125 fps=0.4 q=30.7 size=    3840KiB time=00:00:04.10 bitrate=7672.6kbits/s speed=0.0138x elapsed=0:04:56.25    \nframe=  126 fps=0.4 q=30.5 size=    3840KiB time=00:00:04.10 bitrate=7672.6kbits/s speed=0.0138x elapsed=0:04:56.81    \nframe=  126 fps=0.4 q=30.5 size=    3840KiB time=00:00:04.13 bitrate=7610.7kbits/s speed=0.0139x elapsed=0:04:57.38    \nframe=  127 fps=0.4 q=25.3 size=    3840KiB time=00:00:04.16 bitrate=7549.8kbits/s speed=0.014x elapsed=0:04:57.91    \nframe=  127 fps=0.4 q=25.3 size=    3840KiB time=00:00:04.16 bitrate=7549.8kbits/s speed=0.014x elapsed=0:04:58.43    \nframe=  127 fps=0.4 q=25.3 size=    3840KiB time=00:00:04.16 bitrate=7549.8kbits/s speed=0.0139x elapsed=0:04:58.98    \nframe=  127 fps=0.4 q=25.3 size=    3840KiB time=00:00:04.16 bitrate=7549.8kbits/s speed=0.0139x elapsed=0:04:59.52    \nframe=  128 fps=0.4 q=27.8 size=    3840KiB time=00:00:04.20 bitrate=7489.9kbits/s speed=0.014x elapsed=0:05:00.07    \nframe=  128 fps=0.4 q=27.8 size=    3840KiB time=00:00:04.20 bitrate=7489.9kbits/s speed=0.014x elapsed=0:05:00.65    \nframe=  128 fps=0.4 q=27.8 size=    3840KiB time=00:00:04.20 bitrate=7489.9kbits/s speed=0.0139x elapsed=0:05:01.19    \nframe=  128 fps=0.4 q=27.8 size=    3840KiB time=00:00:04.20 bitrate=7489.9kbits/s speed=0.0139x elapsed=0:05:01.77    \nframe=  128 fps=0.4 q=27.8 size=    3840KiB time=00:00:04.20 bitrate=7489.9kbits/s speed=0.0139x elapsed=0:05:02.34    \nframe=  128 fps=0.4 q=27.8 size=    3840KiB time=00:00:04.20 bitrate=7489.9kbits/s speed=0.0139x elapsed=0:05:02.94    \nframe=  128 fps=0.4 q=27.8 size=    3840KiB time=00:00:04.20 bitrate=7489.9kbits/s speed=0.0138x elapsed=0:05:03.47    \nframe=  128 fps=0.4 q=27.8 size=    3840KiB time=00:00:04.20 bitrate=7489.9kbits/s speed=0.0138x elapsed=0:05:04.00    \nframe=  129 fps=0.4 q=30.7 size=    3840KiB time=00:00:04.23 bitrate=7430.9kbits/s speed=0.0139x elapsed=0:05:04.52    \nframe=  129 fps=0.4 q=30.7 size=    3840KiB time=00:00:04.23 bitrate=7430.9kbits/s speed=0.0139x elapsed=0:05:05.04    \nframe=  130 fps=0.4 q=30.6 size=    3840KiB time=00:00:04.26 bitrate=7372.9kbits/s speed=0.014x elapsed=0:05:05.56    \nframe=  130 fps=0.4 q=30.6 size=    3840KiB time=00:00:04.26 bitrate=7372.9kbits/s speed=0.0139x elapsed=0:05:06.11    \nframe=  130 fps=0.4 q=30.6 size=    3840KiB time=00:00:04.26 bitrate=7372.9kbits/s speed=0.0139x elapsed=0:05:06.70    \nframe=  130 fps=0.4 q=30.6 size=    3840KiB time=00:00:04.26 bitrate=7372.9kbits/s speed=0.0139x elapsed=0:05:07.21    \nframe=  130 fps=0.4 q=30.6 size=    3840KiB time=00:00:04.26 bitrate=7372.9kbits/s speed=0.0139x elapsed=0:05:07.72    \nframe=  130 fps=0.4 q=30.6 size=    3840KiB time=00:00:04.26 bitrate=7372.9kbits/s speed=0.0138x elapsed=0:05:08.27    \nframe=  131 fps=0.4 q=25.1 size=    3840KiB time=00:00:04.30 bitrate=7315.7kbits/s speed=0.0139x elapsed=0:05:08.80    \nframe=  131 fps=0.4 q=25.1 size=    3840KiB time=00:00:04.30 bitrate=7315.7kbits/s speed=0.0139x elapsed=0:05:09.38    \nframe=  132 fps=0.4 q=27.6 size=    4096KiB time=00:00:04.30 bitrate=7803.4kbits/s speed=0.0139x elapsed=0:05:09.95    \nframe=  132 fps=0.4 q=27.6 size=    4096KiB time=00:00:04.33 bitrate=7743.4kbits/s speed=0.014x elapsed=0:05:10.49    \nframe=  132 fps=0.4 q=27.6 size=    4096KiB time=00:00:04.33 bitrate=7743.4kbits/s speed=0.0139x elapsed=0:05:11.01    \nframe=  132 fps=0.4 q=27.6 size=    4096KiB time=00:00:04.33 bitrate=7743.4kbits/s speed=0.0139x elapsed=0:05:11.55    \nframe=  132 fps=0.4 q=27.6 size=    4096KiB time=00:00:04.33 bitrate=7743.4kbits/s speed=0.0139x elapsed=0:05:12.10    \nframe=  132 fps=0.4 q=27.6 size=    4096KiB time=00:00:04.33 bitrate=7743.4kbits/s speed=0.0139x elapsed=0:05:12.62    \nframe=  132 fps=0.4 q=27.6 size=    4096KiB time=00:00:04.33 bitrate=7743.4kbits/s speed=0.0138x elapsed=0:05:13.15    \nframe=  132 fps=0.4 q=27.6 size=    4096KiB time=00:00:04.33 bitrate=7743.4kbits/s speed=0.0138x elapsed=0:05:13.72    \nframe=  132 fps=0.4 q=27.6 size=    4096KiB time=00:00:04.33 bitrate=7743.4kbits/s speed=0.0138x elapsed=0:05:14.28    \nframe=  133 fps=0.4 q=30.4 size=    4096KiB time=00:00:04.36 bitrate=7684.3kbits/s speed=0.0139x elapsed=0:05:14.94    \nframe=  133 fps=0.4 q=30.4 size=    4096KiB time=00:00:04.36 bitrate=7684.3kbits/s speed=0.0138x elapsed=0:05:15.64    \nframe=  133 fps=0.4 q=30.4 size=    4096KiB time=00:00:04.36 bitrate=7684.3kbits/s speed=0.0138x elapsed=0:05:16.42    \nframe=  133 fps=0.4 q=30.4 size=    4096KiB time=00:00:04.36 bitrate=7684.3kbits/s speed=0.0138x elapsed=0:05:17.19    \nframe=  133 fps=0.4 q=30.4 size=    4096KiB time=00:00:04.36 bitrate=7684.3kbits/s speed=0.0137x elapsed=0:05:17.81    \nframe=  134 fps=0.4 q=30.3 size=    4096KiB time=00:00:04.40 bitrate=7626.1kbits/s speed=0.0138x elapsed=0:05:18.36    \nframe=  134 fps=0.4 q=30.3 size=    4096KiB time=00:00:04.40 bitrate=7626.1kbits/s speed=0.0138x elapsed=0:05:18.98    \nframe=  134 fps=0.4 q=30.3 size=    4096KiB time=00:00:04.40 bitrate=7626.1kbits/s speed=0.0138x elapsed=0:05:19.59    \nframe=  135 fps=0.4 q=25.3 size=    4096KiB time=00:00:04.43 bitrate=7568.7kbits/s speed=0.0138x elapsed=0:05:20.14    \nframe=  135 fps=0.4 q=25.3 size=    4096KiB time=00:00:04.43 bitrate=7568.7kbits/s speed=0.0138x elapsed=0:05:20.74    \nframe=  135 fps=0.4 q=25.3 size=    4096KiB time=00:00:04.43 bitrate=7568.7kbits/s speed=0.0138x elapsed=0:05:21.29    \nframe=  136 fps=0.4 q=27.4 size=    4096KiB time=00:00:04.46 bitrate=7512.3kbits/s speed=0.0139x elapsed=0:05:21.80    \nframe=  136 fps=0.4 q=27.4 size=    4096KiB time=00:00:04.46 bitrate=7512.3kbits/s speed=0.0139x elapsed=0:05:22.35    \nframe=  136 fps=0.4 q=27.4 size=    4096KiB time=00:00:04.46 bitrate=7512.3kbits/s speed=0.0138x elapsed=0:05:22.97    \nframe=  136 fps=0.4 q=27.4 size=    4096KiB time=00:00:04.46 bitrate=7512.3kbits/s speed=0.0138x elapsed=0:05:23.55    \nframe=  136 fps=0.4 q=27.4 size=    4096KiB time=00:00:04.46 bitrate=7512.3kbits/s speed=0.0138x elapsed=0:05:24.15    \nframe=  136 fps=0.4 q=27.4 size=    4096KiB time=00:00:04.46 bitrate=7512.3kbits/s speed=0.0138x elapsed=0:05:24.79    \nframe=  136 fps=0.4 q=27.4 size=    4096KiB time=00:00:04.46 bitrate=7512.3kbits/s speed=0.0137x elapsed=0:05:25.32    \nframe=  136 fps=0.4 q=27.4 size=    4096KiB time=00:00:04.46 bitrate=7512.3kbits/s speed=0.0137x elapsed=0:05:25.91    \nframe=  136 fps=0.4 q=27.4 size=    4096KiB time=00:00:04.46 bitrate=7512.3kbits/s speed=0.0137x elapsed=0:05:26.66    \nframe=  136 fps=0.4 q=27.4 size=    4096KiB time=00:00:04.46 bitrate=7512.3kbits/s speed=0.0136x elapsed=0:05:27.27    \nframe=  136 fps=0.4 q=27.4 size=    4096KiB time=00:00:04.46 bitrate=7512.3kbits/s speed=0.0136x elapsed=0:05:27.80    \nframe=  137 fps=0.4 q=30.2 size=    4096KiB time=00:00:04.50 bitrate=7456.6kbits/s speed=0.0137x elapsed=0:05:28.47    \nframe=  137 fps=0.4 q=30.2 size=    4096KiB time=00:00:04.50 bitrate=7456.6kbits/s speed=0.0137x elapsed=0:05:29.13    \nframe=  137 fps=0.4 q=30.2 size=    4096KiB time=00:00:04.50 bitrate=7456.6kbits/s speed=0.0136x elapsed=0:05:29.76    \nframe=  137 fps=0.4 q=30.2 size=    4096KiB time=00:00:04.50 bitrate=7456.6kbits/s speed=0.0136x elapsed=0:05:30.28    \nframe=  137 fps=0.4 q=30.2 size=    4096KiB time=00:00:04.50 bitrate=7456.6kbits/s speed=0.0136x elapsed=0:05:30.81    \nframe=  137 fps=0.4 q=30.2 size=    4096KiB time=00:00:04.50 bitrate=7456.6kbits/s speed=0.0136x elapsed=0:05:31.34    \nframe=  138 fps=0.4 q=30.1 size=    4096KiB time=00:00:04.53 bitrate=7401.8kbits/s speed=0.0137x elapsed=0:05:31.88    \nframe=  138 fps=0.4 q=30.1 size=    4096KiB time=00:00:04.53 bitrate=7401.8kbits/s speed=0.0136x elapsed=0:05:32.44    \nframe=  138 fps=0.4 q=30.1 size=    4096KiB time=00:00:04.53 bitrate=7401.8kbits/s speed=0.0136x elapsed=0:05:32.98    \nframe=  138 fps=0.4 q=30.1 size=    4096KiB time=00:00:04.53 bitrate=7401.8kbits/s speed=0.0136x elapsed=0:05:33.53    \nframe=  139 fps=0.4 q=25.4 size=    4096KiB time=00:00:04.56 bitrate=7347.8kbits/s speed=0.0137x elapsed=0:05:34.12    \nframe=  139 fps=0.4 q=25.4 size=    4096KiB time=00:00:04.56 bitrate=7347.8kbits/s speed=0.0136x elapsed=0:05:34.76    \nframe=  139 fps=0.4 q=25.4 size=    4096KiB time=00:00:04.56 bitrate=7347.8kbits/s speed=0.0136x elapsed=0:05:35.30    \nframe=  139 fps=0.4 q=25.4 size=    4096KiB time=00:00:04.56 bitrate=7347.8kbits/s speed=0.0136x elapsed=0:05:35.85    \nframe=  139 fps=0.4 q=25.4 size=    4096KiB time=00:00:04.56 bitrate=7347.8kbits/s speed=0.0136x elapsed=0:05:36.42    \nframe=  139 fps=0.4 q=25.4 size=    4096KiB time=00:00:04.56 bitrate=7347.8kbits/s speed=0.0136x elapsed=0:05:37.00    \nframe=  140 fps=0.4 q=27.1 size=    4352KiB time=00:00:04.60 bitrate=7750.4kbits/s speed=0.0136x elapsed=0:05:37.53    \nframe=  140 fps=0.4 q=27.1 size=    4352KiB time=00:00:04.60 bitrate=7750.4kbits/s speed=0.0136x elapsed=0:05:38.17    \nframe=  140 fps=0.4 q=27.1 size=    4352KiB time=00:00:04.60 bitrate=7750.4kbits/s speed=0.0136x elapsed=0:05:38.72    \nframe=  140 fps=0.4 q=27.1 size=    4352KiB time=00:00:04.60 bitrate=7750.4kbits/s speed=0.0136x elapsed=0:05:39.34    \nframe=  140 fps=0.4 q=27.1 size=    4352KiB time=00:00:04.60 bitrate=7750.4kbits/s speed=0.0135x elapsed=0:05:39.97    \nframe=  140 fps=0.4 q=27.1 size=    4352KiB time=00:00:04.60 bitrate=7750.4kbits/s speed=0.0135x elapsed=0:05:40.58    \nframe=  140 fps=0.4 q=27.1 size=    4352KiB time=00:00:04.60 bitrate=7750.4kbits/s speed=0.0135x elapsed=0:05:41.17    \nframe=  140 fps=0.4 q=27.1 size=    4352KiB time=00:00:04.60 bitrate=7750.4kbits/s speed=0.0135x elapsed=0:05:41.74    \nframe=  140 fps=0.4 q=27.1 size=    4352KiB time=00:00:04.60 bitrate=7750.4kbits/s speed=0.0134x elapsed=0:05:42.34    \nframe=  140 fps=0.4 q=27.1 size=    4352KiB time=00:00:04.60 bitrate=7750.4kbits/s speed=0.0134x elapsed=0:05:42.88    \nframe=  140 fps=0.4 q=27.1 size=    4352KiB time=00:00:04.60 bitrate=7750.4kbits/s speed=0.0134x elapsed=0:05:43.43    \nframe=  140 fps=0.4 q=27.1 size=    4352KiB time=00:00:04.60 bitrate=7750.4kbits/s speed=0.0134x elapsed=0:05:43.97    \nframe=  140 fps=0.4 q=27.1 size=    4352KiB time=00:00:04.60 bitrate=7750.4kbits/s speed=0.0134x elapsed=0:05:44.51    \nframe=  140 fps=0.4 q=27.1 size=    4352KiB time=00:00:04.60 bitrate=7750.4kbits/s speed=0.0133x elapsed=0:05:45.13    \nframe=  140 fps=0.4 q=27.1 size=    4352KiB time=00:00:04.60 bitrate=7750.4kbits/s speed=0.0133x elapsed=0:05:45.72    \nframe=  140 fps=0.4 q=27.1 size=    4352KiB time=00:00:04.60 bitrate=7750.4kbits/s speed=0.0133x elapsed=0:05:46.31    \nframe=  140 fps=0.4 q=27.1 size=    4352KiB time=00:00:04.60 bitrate=7750.4kbits/s speed=0.0133x elapsed=0:05:47.09    \nframe=  140 fps=0.4 q=27.1 size=    4352KiB time=00:00:04.60 bitrate=7750.4kbits/s speed=0.0132x elapsed=0:05:47.76    \nframe=  140 fps=0.4 q=27.1 size=    4352KiB time=00:00:04.60 bitrate=7750.4kbits/s speed=0.0132x elapsed=0:05:48.46    \nframe=  141 fps=0.4 q=29.7 size=    4352KiB time=00:00:04.63 bitrate=7694.7kbits/s speed=0.0133x elapsed=0:05:49.08    \nframe=  141 fps=0.4 q=29.7 size=    4352KiB time=00:00:04.63 bitrate=7694.7kbits/s speed=0.0133x elapsed=0:05:49.61    \nframe=  141 fps=0.4 q=29.7 size=    4352KiB time=00:00:04.63 bitrate=7694.7kbits/s speed=0.0132x elapsed=0:05:50.28    \nframe=  141 fps=0.4 q=29.7 size=    4352KiB time=00:00:04.63 bitrate=7694.7kbits/s speed=0.0132x elapsed=0:05:51.05    \nframe=  142 fps=0.4 q=30.1 size=    4352KiB time=00:00:04.66 bitrate=7639.7kbits/s speed=0.0133x elapsed=0:05:51.69    \nframe=  142 fps=0.4 q=30.1 size=    4352KiB time=00:00:04.66 bitrate=7639.7kbits/s speed=0.0132x elapsed=0:05:52.40    \nframe=  142 fps=0.4 q=30.1 size=    4352KiB time=00:00:04.66 bitrate=7639.7kbits/s speed=0.0132x elapsed=0:05:52.94    \nframe=  142 fps=0.4 q=30.1 size=    4352KiB time=00:00:04.66 bitrate=7639.7kbits/s speed=0.0132x elapsed=0:05:53.57    \nframe=  142 fps=0.4 q=30.1 size=    4352KiB time=00:00:04.66 bitrate=7639.7kbits/s speed=0.0132x elapsed=0:05:54.17    \nframe=  142 fps=0.4 q=30.1 size=    4352KiB time=00:00:04.66 bitrate=7639.7kbits/s speed=0.0132x elapsed=0:05:54.69    \nframe=  142 fps=0.4 q=30.1 size=    4352KiB time=00:00:04.66 bitrate=7639.7kbits/s speed=0.0131x elapsed=0:05:55.23    \nframe=  143 fps=0.4 q=25.6 size=    4352KiB time=00:00:04.70 bitrate=7585.5kbits/s speed=0.0132x elapsed=0:05:55.88    \nframe=  143 fps=0.4 q=25.6 size=    4352KiB time=00:00:04.70 bitrate=7585.5kbits/s speed=0.0132x elapsed=0:05:56.42    \nframe=  143 fps=0.4 q=25.6 size=    4352KiB time=00:00:04.70 bitrate=7585.5kbits/s speed=0.0132x elapsed=0:05:56.97    \nframe=  144 fps=0.4 q=26.3 size=    4352KiB time=00:00:04.73 bitrate=7532.1kbits/s speed=0.0132x elapsed=0:05:57.50    \nframe=  144 fps=0.4 q=26.3 size=    4352KiB time=00:00:04.73 bitrate=7532.1kbits/s speed=0.0132x elapsed=0:05:58.06    \nframe=  144 fps=0.4 q=26.3 size=    4352KiB time=00:00:04.73 bitrate=7532.1kbits/s speed=0.0132x elapsed=0:05:58.59    \nframe=  144 fps=0.4 q=26.3 size=    4352KiB time=00:00:04.73 bitrate=7532.1kbits/s speed=0.0132x elapsed=0:05:59.14    \nframe=  144 fps=0.4 q=26.3 size=    4352KiB time=00:00:04.73 bitrate=7532.1kbits/s speed=0.0132x elapsed=0:05:59.68    \nframe=  144 fps=0.4 q=26.3 size=    4352KiB time=00:00:04.73 bitrate=7532.1kbits/s speed=0.0131x elapsed=0:06:00.23    \nframe=  144 fps=0.4 q=26.3 size=    4352KiB time=00:00:04.73 bitrate=7532.1kbits/s speed=0.0131x elapsed=0:06:00.75    \nframe=  144 fps=0.4 q=26.3 size=    4352KiB time=00:00:04.73 bitrate=7532.1kbits/s speed=0.0131x elapsed=0:06:01.30    \nframe=  144 fps=0.4 q=26.3 size=    4352KiB time=00:00:04.73 bitrate=7532.1kbits/s speed=0.0131x elapsed=0:06:01.81    \nframe=  145 fps=0.4 q=29.1 size=    4352KiB time=00:00:04.76 bitrate=7479.4kbits/s speed=0.0132x elapsed=0:06:02.35    \nframe=  145 fps=0.4 q=29.1 size=    4352KiB time=00:00:04.76 bitrate=7479.4kbits/s speed=0.0131x elapsed=0:06:02.87    \nframe=  145 fps=0.4 q=29.1 size=    4352KiB time=00:00:04.76 bitrate=7479.4kbits/s speed=0.0131x elapsed=0:06:03.43    \nframe=  145 fps=0.4 q=29.1 size=    4352KiB time=00:00:04.76 bitrate=7479.4kbits/s speed=0.0131x elapsed=0:06:03.98    \nframe=  146 fps=0.4 q=29.0 size=    4352KiB time=00:00:04.80 bitrate=7427.5kbits/s speed=0.0132x elapsed=0:06:04.57    \nframe=  146 fps=0.4 q=29.0 size=    4352KiB time=00:00:04.80 bitrate=7427.5kbits/s speed=0.0131x elapsed=0:06:05.10    \nframe=  146 fps=0.4 q=29.0 size=    4352KiB time=00:00:04.80 bitrate=7427.5kbits/s speed=0.0131x elapsed=0:06:05.68    \nframe=  147 fps=0.4 q=26.6 size=    4352KiB time=00:00:04.83 bitrate=7376.3kbits/s speed=0.0132x elapsed=0:06:06.19    \nframe=  147 fps=0.4 q=26.6 size=    4352KiB time=00:00:04.83 bitrate=7376.3kbits/s speed=0.0132x elapsed=0:06:06.72    \nframe=  147 fps=0.4 q=26.6 size=    4352KiB time=00:00:04.83 bitrate=7376.3kbits/s speed=0.0132x elapsed=0:06:07.27    \nframe=  147 fps=0.4 q=26.6 size=    4352KiB time=00:00:04.83 bitrate=7376.3kbits/s speed=0.0131x elapsed=0:06:07.79    \nframe=  148 fps=0.4 q=24.3 size=    4608KiB time=00:00:04.86 bitrate=7756.7kbits/s speed=0.0132x elapsed=0:06:08.34    \nframe=  148 fps=0.4 q=24.3 size=    4608KiB time=00:00:04.86 bitrate=7756.7kbits/s speed=0.0132x elapsed=0:06:08.88    \nframe=  148 fps=0.4 q=24.3 size=    4608KiB time=00:00:04.86 bitrate=7756.7kbits/s speed=0.0132x elapsed=0:06:09.45    \nframe=  149 fps=0.4 q=27.5 size=    4608KiB time=00:00:04.90 bitrate=7703.9kbits/s speed=0.0132x elapsed=0:06:09.98    \nframe=  149 fps=0.4 q=27.5 size=    4608KiB time=00:00:04.90 bitrate=7703.9kbits/s speed=0.0132x elapsed=0:06:10.51    \n[mp4 @ 0000022ad4c59740] Starting second pass: moving the moov atom to the beginning of the file\n[out#0/mp4 @ 0000022ad4c4ac00] video:4774KiB audio:0KiB subtitle:0KiB other streams:0KiB global headers:2KiB muxing overhead: 0.109476%\nframe=  150 fps=0.4 q=26.2 Lsize=    4779KiB time=00:00:04.93 bitrate=7936.4kbits/s speed=0.0133x elapsed=0:06:10.58    \nx265 [info]: frame I:      1, Avg QP:24.33  kb/s: 43172.88\nx265 [info]: frame P:     37, Avg QP:26.06  kb/s: 22682.17\nx265 [info]: frame B:    112, Avg QP:30.80  kb/s: 2595.91 \nx265 [info]: Weighted P-Frames: Y:13.5% UV:13.5%\n\nencoded 150 frames in 370.04s (0.41 fps), 7821.04 kb/s, Avg QP:29.59\n",
  "seconds": 371.3284201622009,
  "probe_out": {}
}